<svg width="30" height="30" viewBox="0 0 30 30" fill="none" xmlns="http://www.w3.org/2000/svg">
<g clip-path="url(#clip0_90_15211)">
<path d="M29.5832 15.0001C29.5832 6.94593 23.054 0.416748 14.9998 0.416748C6.94568 0.416748 0.416504 6.94593 0.416504 15.0001C0.416504 23.0542 6.94568 29.5834 14.9998 29.5834C23.054 29.5834 29.5832 23.0542 29.5832 15.0001Z" fill="#1275B1"/>
<path d="M11.4779 8.4294C11.4779 9.40289 10.634 10.1921 9.59318 10.1921C8.55229 10.1921 7.7085 9.40289 7.7085 8.4294C7.7085 7.45591 8.55229 6.66675 9.59318 6.66675C10.634 6.66675 11.4779 7.45591 11.4779 8.4294Z" fill="white"/>
<path d="M7.96582 11.4875H11.1875V21.2499H7.96582V11.4875Z" fill="white"/>
<path d="M16.3745 11.4876H13.1528V21.25H16.3745C16.3745 21.25 16.3745 18.1766 16.3745 16.2551C16.3745 15.1016 16.7684 13.9432 18.3397 13.9432C20.1155 13.9432 20.1049 15.4526 20.0966 16.622C20.0857 18.1504 20.1116 19.7103 20.1116 21.25H23.3332V16.0976C23.306 12.8077 22.4487 11.2917 19.6284 11.2917C17.9535 11.2917 16.9152 12.0522 16.3745 12.7401V11.4876Z" fill="white"/>
</g>
<defs>
<clipPath id="clip0_90_15211">
<rect width="30" height="30" fill="white"/>
</clipPath>
</defs>
</svg>
