<?xml version="1.0" encoding="UTF-8"?><svg id="Lag_2" xmlns="http://www.w3.org/2000/svg" width="154.92" height="30.54" xmlns:xlink="http://www.w3.org/1999/xlink" viewBox="0 0 154.92 30.54"><defs><clipPath id="clippath"><path id="Outline" d="M4.12,0h146.68c2.27,0,4.12,1.94,4.12,4.33v21.87c0,2.4-1.85,4.33-4.12,4.33H4.12c-2.27,0-4.12-1.94-4.12-4.33V4.33C0,1.94,1.85,0,4.12,0Z" fill="none" stroke-width="0"/></clipPath></defs><g id="Lag_7"><g clip-path="url(#clippath)"><circle cx="120.32" cy="16.57" r="46.79" fill="#0a113b" stroke-width="0"/><g id="Outline-2"><path d="M150.8,1.32c1.54,0,2.8,1.35,2.8,3.01v21.87c0,1.66-1.26,3.01-2.8,3.01H4.12c-1.54,0-2.8-1.35-2.8-3.01V4.33c0-1.66,1.26-3.01,2.8-3.01h146.68M150.8,0H4.12C1.85,0,0,1.94,0,4.33v21.87C0,28.6,1.85,30.54,4.12,30.54h146.68c2.27,0,4.12-1.94,4.12-4.33V4.33C154.92,1.94,153.07,0,150.8,0h0Z" fill="#0a113b" stroke-width="0"/></g><path id="P" d="M9.65,22.86V7.66h7.51c2.84,0,5.16,2.1,5.16,5.08s-2.31,5.15-5.16,5.15h-3.87v4.97h-3.65ZM13.3,14.76h3.08c1.38,0,2.2-.99,2.2-2.01,0-1.07-.81-1.95-2.2-1.95h-3.08v3.96Z" fill="#0a113b" stroke-width="0"/><path id="A" d="M27.29,7.66h4.34l5.97,15.19h-3.91l-1.02-2.79h-6.39l-1.02,2.79h-3.91l5.96-15.19h0ZM27.31,17.21h4.3l-2.15-5.86-2.16,5.86h0Z" fill="#0a113b" stroke-width="0"/><path id="R" d="M39.93,22.86V7.66h7.63c2.84,0,5.16,2.02,5.16,4.93,0,2.17-1.21,3.84-2.97,4.59l3.16,5.68h-3.95l-2.86-5.25h-2.52v5.23h-3.65,0ZM43.57,14.49h3.19c1.38,0,2.2-.82,2.2-1.89,0-1.01-.81-1.8-2.2-1.8h-3.19v3.69h0Z" fill="#0a113b" stroke-width="0"/><path id="K" d="M55.47,22.86V7.66h3.66v6.4l5.88-6.4h4.61l-5.88,6.31,6.14,8.88h-4.45l-4.37-6.54-1.93,2v4.54h-3.66Z" fill="#0a113b" stroke-width="0"/><polygon points="94.9 10.16 94.9 7.68 83.1 7.68 83.1 10.82 90.08 10.82 82.99 20.41 82.99 22.87 95.01 22.87 95.01 19.74 87.83 19.74 94.9 10.16" fill="#fff" stroke-width="0"/><path d="M105.66,7.67c-4.25,0-7.66,3.33-7.66,7.59s3.31,7.61,7.66,7.61,7.67-3.36,7.67-7.61-3.42-7.59-7.67-7.59ZM105.66,19.42c-2.38,0-4.01-1.79-4.01-4.15s1.71-4.12,4.01-4.12,4.03,1.63,4.03,4.12-1.65,4.15-4.03,4.15Z" fill="#fff" stroke-width="0"/><polygon points="127.33 16.94 119.72 7.68 116.61 7.68 116.61 22.87 116.61 22.87 120.27 22.87 120.27 13.7 127.82 22.87 130.98 22.87 130.98 7.68 127.33 7.68 127.33 16.94" fill="#fff" stroke-width="0"/><polygon points="138.11 19.78 138.11 16.69 144.28 16.69 144.28 13.6 138.11 13.6 138.11 10.78 145.16 10.78 145.16 7.68 134.45 7.68 134.45 22.87 145.27 22.87 145.27 19.78 138.11 19.78" fill="#fff" stroke-width="0"/></g></g></svg>