<?xml version="1.0" encoding="UTF-8"?><svg id="Lag_2" xmlns="http://www.w3.org/2000/svg" width="96.29" height="31.1" viewBox="0 0 96.29 31.1"><g id="Layer_1"><path d="M36.56.55l-12.61,30.08h-8.22L9.52,6.62c-.38-1.48-.7-2.02-1.85-2.64C5.81,2.97,2.72,2.01,0,1.42l.18-.87h13.24c1.69,0,3.2,1.12,3.59,3.07l3.28,17.4L28.38.55h8.17ZM68.78,20.81c.03-7.94-10.98-8.38-10.9-11.92.02-1.08,1.05-2.23,3.3-2.52,1.11-.15,4.19-.26,7.67,1.35l1.37-6.38c-1.87-.68-4.28-1.33-7.28-1.33-7.69,0-13.1,4.09-13.15,9.94-.05,4.33,3.86,6.75,6.81,8.18,3.03,1.47,4.05,2.42,4.04,3.74-.02,2.02-2.42,2.91-4.66,2.94-3.91.06-6.18-1.06-7.99-1.9l-1.41,6.59c1.82.83,5.17,1.56,8.65,1.6,8.17,0,13.52-4.04,13.55-10.29M89.09,30.63h7.2L90,.55h-6.64c-1.49,0-2.75.87-3.31,2.21l-11.68,27.87h8.17l1.62-4.49h9.98l.94,4.49ZM80.41,19.97l4.1-11.29,2.36,11.29h-6.45ZM47.67.55l-6.43,30.08h-7.78L39.9.55h7.78Z" fill="#1434cb" stroke-width="0"/></g></svg>