<?xml version="1.0" encoding="UTF-8"?><svg id="Lag_2" xmlns="http://www.w3.org/2000/svg" width="255.21" height="352.76" xmlns:xlink="http://www.w3.org/1999/xlink" viewBox="0 0 255.21 352.76"><defs><clipPath id="clippath"><rect x="89.63" y="222.05" width="83.02" height="130.71" fill="none" stroke-width="0"/></clipPath></defs><g id="Betalingsparkering"><path d="M34.33,233.73h0c0,8.79,7.15,15.92,15.94,15.92h152.67c8.78,0,15.94-7.13,15.94-15.92v-6.53c0-8.79-7.15-15.92-15.94-15.92H50.27c-8.78,0-15.94,7.13-15.94,15.92h0v6.53ZM29.81,7.49h195.59c12.31,0,22.32,10.01,22.32,22.27v236.82c0,12.27-10.01,22.27-22.32,22.27H29.81c-12.31,0-22.32-10.01-22.32-22.27V29.76c0-12.26,10.01-22.27,22.32-22.27ZM205.68,181.75c8.17,0,14.83-6.63,14.83-14.82V46.87c0-8.19-6.66-14.82-14.83-14.82H48.52c-8.18,0-14.83,6.63-14.83,14.82v120.06c0,8.19,6.66,14.82,14.83,14.82h157.16Z" fill="none" stroke="#dbe9fd" stroke-width="14.98"/><g clip-path="url(#clippath)"><rect x="91.4" y="223.82" width="79.49" height="127.18" rx="10.6" ry="10.6" fill="#f2f7ff" stroke-width="0"/><path d="M90.44,230.93v112.96c0,2.14.86,4.19,2.38,5.71,1.53,1.51,3.6,2.36,5.76,2.36h65.11c2.16,0,4.23-.85,5.76-2.36,1.53-1.51,2.38-3.56,2.38-5.71v-112.96c0-2.14-.86-4.19-2.38-5.71-1.53-1.51-3.6-2.36-5.76-2.36h-65.11c-2.16,0-4.23.85-5.76,2.36-1.53,1.51-2.38,3.57-2.38,5.71ZM163.7,343.89h-19.74c.37-5.04,2.58-9.78,6.21-13.33,3.63-3.55,8.44-5.68,13.53-5.99v19.32ZM118.32,343.89h-19.74v-19.32c5.09.31,9.9,2.44,13.53,5.99,3.63,3.55,5.84,8.29,6.21,13.33ZM160.24,287.41c0,14-13.06,25.42-29.1,25.42s-29.1-11.42-29.1-25.42,13.06-25.42,29.1-25.42,29.1,11.42,29.1,25.42ZM163.7,230.93v19.16c-5.07-.3-9.85-2.41-13.48-5.93-3.63-3.52-5.85-8.22-6.26-13.23h19.74ZM118.32,230.93c-.41,5.01-2.64,9.71-6.26,13.23-3.63,3.52-8.41,5.63-13.48,5.93v-19.16h19.74Z" fill="#dbe9fd" stroke-width="0"/><path d="M137.71,294.25h-.02c-.68.28-1.21.65-1.58,1.15-.37.5-.54,1.09-.54,1.74,0,.82.26,1.53.75,2.04.49.51,1.18.78,1.95.78.43,0,.89-.08,1.33-.21,4.07-1.18,6.68-5.34,7.16-10.5h2.56c.52,0,.97-.18,1.3-.52.32-.33.49-.79.49-1.28s-.17-.93-.49-1.26c-.32-.33-.78-.51-1.3-.51h-2.56c-.27-2.93-1.2-5.57-2.79-7.51-1.67-2.05-4.06-3.3-7.09-3.3-2.63,0-4.64.9-6.17,2.64-1.51,1.72-2.53,4.22-3.26,7.37l-.2.8h-8.96c.19-1.02.58-1.87,1.13-2.57.64-.81,1.54-1.45,2.71-1.92h.01c.61-.27,1.13-.64,1.5-1.13.38-.5.57-1.1.57-1.8,0-.78-.25-1.48-.71-1.98-.47-.51-1.12-.79-1.87-.79-.46,0-.88.05-1.33.18-4.01,1.15-6.71,5.02-7.23,10.01h-2.59c-.52,0-.97.18-1.3.51-.32.33-.49.78-.49,1.26s.16.95.49,1.28c.33.34.78.52,1.3.52h2.59c.29,2.89,1.27,5.41,2.86,7.22,1.67,1.91,3.98,3.04,6.76,3.04,2.51,0,4.49-.86,6.03-2.52,1.52-1.65,2.56-4.05,3.26-7.1l.15-.63h9.42c-.21,1.39-.65,2.42-1.26,3.2-.67.87-1.56,1.44-2.6,1.81ZM126.42,289.24c-.45,1.56-1.01,2.62-1.65,3.29-.69.74-1.51,1.05-2.46,1.05-1.77,0-3.51-1.4-4.01-4.34h8.13ZM133,285.67c.48-1.87,1.04-3.07,1.7-3.81.69-.78,1.53-1.08,2.66-1.08s2.13.39,2.87,1.22c.68.77,1.19,1.96,1.38,3.67h-8.61Z" fill="#dbe9fd" stroke="#dbe9fd" stroke-width=".88"/></g></g></svg>