<?xml version="1.0" encoding="UTF-8"?><svg id="Lag_2" xmlns="http://www.w3.org/2000/svg" width="272.06" height="297.21" viewBox="0 0 272.06 297.21"><g id="Rådgivning"><path d="M145.56,297.21c-9.84-.06-18.67-5.57-23.05-14.38l-1.15-2.31-2.57-.29c-63.47-7.25-83.27-39.52-89.42-58.11l-.76-2.29-2.29-.74C10.36,213.91-.21,199.17,0,182.41v-21.53c-.06-15.79,9.8-30.14,24.54-35.73l2.76-1.05.29-2.94C29.56,100.92,35,0,136.03,0s106.47,100.92,108.45,121.16l.29,2.94,2.76,1.05c14.74,5.59,24.6,19.95,24.54,35.71v20.46c0,19.57-14.3,36.76-33.75,38.97-23.03,2.61-42.62-15.42-42.62-37.93v-21.47c.07-15.57,9.44-29.44,23.88-35.32l3.32-1.35-.39-3.57c-9.76-89.78-60.86-99.48-86.47-99.48S59.48,30.86,49.72,120.64l-.39,3.56,3.32,1.36c14.4,5.89,23.72,19.76,23.73,35.32v21.47c-.06,14.54-8.57,28.04-21.7,34.36l-4.46,2.15,2.32,4.37c7.21,13.56,24.65,30.79,66.81,35.92l2.92.36,1.19-1.8c4.32-6.55,11.18-11.22,18.98-12.14,4.39-.52,8.7.06,12.75,1.68,9.6,3.85,15.91,12.68,16.27,23.01.52,15.13-11.58,26.96-25.9,26.97ZM233.88,143.85c-7.7,0-15.12,5.24-16.81,14.3-.18.94-.21,1.91-.21,2.87v20.8c0,8.05,5.35,15.41,13.21,17.13,11.04,2.41,20.84-5.97,20.84-16.61v-21.23c0-.96-.04-1.92-.2-2.86-1.63-9.12-9.09-14.41-16.82-14.41ZM38.19,143.85c-9.39,0-17.02,7.64-17.02,17.02v21.47c0,9.39,7.64,17.02,17.02,17.02s17.02-7.64,17.02-17.02v-21.47c0-9.39-7.64-17.02-17.02-17.02Z" fill="#dbe9fd" fill-rule="evenodd" stroke-width="0"/></g></svg>