<?xml version="1.0" encoding="UTF-8"?><svg id="Lag_2" xmlns="http://www.w3.org/2000/svg" width="204.66" height="598.67" viewBox="0 0 204.66 598.67"><g id="Skiltning"><rect x="81.49" y="229.57" width="40.93" height="362.75" fill="none" stroke="#dbe9fd" stroke-linecap="round" stroke-linejoin="round" stroke-width="12.7"/><rect x="6.35" y="6.35" width="191.96" height="222.56" rx="19.05" ry="19.05" fill="#dbe9fd" stroke="#dbe9fd" stroke-width="12.7"/><path d="M37.74,46.58h129.18" fill="none" stroke="#f2f7ff" stroke-linecap="round" stroke-width="9.41"/><path d="M37.74,74.81h129.18" fill="none" stroke="#f2f7ff" stroke-linecap="round" stroke-width="9.41"/><path d="M37.74,103.04h129.18" fill="none" stroke="#f2f7ff" stroke-linecap="round" stroke-width="9.41"/><path d="M37.74,131.27h129.18" fill="none" stroke="#f2f7ff" stroke-linecap="round" stroke-width="9.41"/><path d="M83.81,159.54h82.2" fill="none" stroke="#f2f7ff" stroke-linecap="round" stroke-width="9.08"/><path d="M38.48,202.2c-2.93,0-4.62-1.86-4.62-5.03v-35.56c0-4.89,1.86-6.79,6.72-6.79h11.89c9.79,0,16.09,6.13,16.09,15.44s-6.38,15.47-16.47,15.47h-8.92v11.44c0,3.17-1.72,5.03-4.69,5.03ZM43.17,178.49h5.96c7.24,0,10.17-2.1,10.17-8.1,0-5.17-2.89-8.13-7.99-8.13h-8.13v16.23Z" fill="#f2f7ff" stroke-width="0"/><line x1="106.89" y1="383.42" x2="106.89" y2="348.14" fill="none" stroke="#dbe9fd" stroke-linecap="round" stroke-linejoin="round" stroke-width="9.88"/><line x1="107.33" y1="329.18" x2="107.33" y2="315.67" fill="none" stroke="#dbe9fd" stroke-linecap="round" stroke-linejoin="round" stroke-width="9.88"/></g></svg>