<?xml version="1.0" encoding="UTF-8"?><svg id="Lag_2" xmlns="http://www.w3.org/2000/svg" width="266.6" height="293.26" viewBox="0 0 266.6 293.26"><g id="Ladestander"><path d="M20.51,67.68v-34.06c.11-6.14,4.67-11.06,10.25-11.05,5.77.11,10.38,5.34,10.28,11.69,0,.24-.01.48-.03.71v55.27c0,12.46-9.18,22.56-20.51,22.56v124.07c0,6.23,4.59,11.28,10.25,11.28s10.25-5.05,10.25-11.28v-45.12c0-18.69,13.77-33.84,30.76-33.84h30.76V22.56c0-12.46,9.18-22.56,20.51-22.56h123.05c11.33,0,20.51,10.1,20.51,22.56v248.15c0,12.46-9.18,22.56-20.51,22.56h-123.05c-11.33,0-20.51-10.1-20.51-22.56v-90.23h-30.76c-5.66,0-10.25,5.05-10.25,11.28v45.12c0,18.69-13.77,33.84-30.76,33.84S0,255.55,0,236.87V90.23c0-12.46,9.18-22.56,20.51-22.56ZM139.45,144.36l53.33,78.22.34-.16c.95,1.78,2.39,3.17,4.4,3.17,3.03,0,5.48-2.7,5.48-6.03,0-.63-.44-1.04-.61-1.62l.36-.18-15.93-52.44c-1.11-3.65,1.36-7.42,4.86-7.42h33.92c4.22,0,6.63-5.3,4.1-9.01l-53.33-78.22-.34.16c-.95-1.78-2.39-3.17-4.4-3.17-3.03,0-5.48,2.7-5.48,6.03,0,.63.44,1.04.61,1.62l-.36.18,15.92,52.44c1.11,3.65-1.36,7.42-4.86,7.42h-33.92c-4.22,0-6.63,5.3-4.1,9.01Z" fill="#dbe9fd" stroke-width="0"/></g></svg>