<?xml version="1.0" encoding="UTF-8"?><svg id="Lag_2" xmlns="http://www.w3.org/2000/svg" width="417.99" height="308.08" viewBox="0 0 417.99 308.08"><g id="Administration"><path d="M209,73.35c20.26,0,36.68-16.42,36.68-36.68S229.25,0,209,0s-36.68,16.42-36.68,36.68,16.42,36.68,36.68,36.68Z" fill="#dbe9fd" stroke-width="0"/><path d="M402.77,220.06h-12.97c-.63,0-1.15-.51-1.15-1.15v-42.31c0-2.19-.31-4.39-1.2-6.39-2.44-5.54-7.79-8.84-13.47-8.84h-149.17c-.63,0-1.15-.51-1.15-1.15v-19.72c0-.63.51-1.15,1.15-1.15h49.03c.64,0,1.17-.54,1.16-1.18-.54-35.3-25.55-50.17-66.01-50.17s-65.47,14.86-66.01,50.17c0,.64.52,1.18,1.16,1.18h49.03c.63,0,1.15.51,1.15,1.15v19.72c0,.63-.51,1.15-1.15,1.15H44.57c-2.19,0-4.39.31-6.39,1.2-5.54,2.44-8.84,7.79-8.84,13.47v42.87c0,.63-.51,1.15-1.15,1.15h-12.97c-2.19,0-4.39.31-6.39,1.2C3.3,223.7,0,229.05,0,234.73v58.12c0,2.19.31,4.39,1.2,6.39,2.44,5.54,7.79,8.84,13.47,8.84h58.12c2.19,0,4.39-.31,6.39-1.2,5.54-2.44,8.84-7.79,8.84-13.47v-58.12c0-2.19-.31-4.39-1.2-6.39-2.44-5.54-7.79-8.84-13.47-8.84h-13.53c-.63,0-1.15-.51-1.15-1.15v-27.05c0-.63.51-1.15,1.15-1.15h133.35c.63,0,1.15.51,1.15,1.15v27.05c0,.63-.51,1.15-1.15,1.15h-12.97c-2.19,0-4.39.31-6.39,1.2-5.54,2.44-8.84,7.79-8.84,13.47v58.13c0,2.19.31,4.39,1.2,6.39,2.44,5.54,7.79,8.84,13.47,8.84h58.12c2.19,0,4.39-.31,6.39-1.2,5.54-2.44,8.84-7.79,8.84-13.47v-58.12c0-2.19-.31-4.39-1.2-6.39-2.44-5.54-7.79-8.84-13.47-8.84h-13.53c-.63,0-1.15-.51-1.15-1.15v-27.05c0-.63.51-1.15,1.15-1.15h133.35c.63,0,1.15.51,1.15,1.15v27.05c0,.63-.51,1.15-1.15,1.15h-12.97c-2.19,0-4.39.31-6.39,1.2-5.54,2.44-8.84,7.79-8.84,13.47v58.12c0,2.19.31,4.39,1.2,6.39,2.44,5.54,7.79,8.84,13.47,8.84h58.12c2.19,0,4.39-.31,6.39-1.2,5.54-2.44,8.84-7.79,8.84-13.47v-58.68c0-5.68-3.3-11.03-8.84-13.47-2-.88-4.2-1.2-6.39-1.2ZM63.15,283.07H25.01v-38.14h38.14v38.14ZM227.24,283.13h-38.14v-38.14h38.14v38.14ZM392.83,284.13h-38.14v-38.14h38.14v38.14Z" fill="#dbe9fd" stroke-width="0"/></g></svg>