<?xml version="1.0" encoding="UTF-8"?><svg id="Lag_2" xmlns="http://www.w3.org/2000/svg" width="381.12" height="306.46" viewBox="0 0 381.12 306.46"><g id="ANPR"><path d="M208.53,213.11l94.29,81.81,66.77-18.35" fill="none" stroke="#dbe9fd" stroke-linecap="round" stroke-linejoin="round" stroke-width="23.08"/><path d="M90.03,173.87l200.31-55.04,13.76,50.08c1.22,4.43.62,9.16-1.65,13.15-2.27,3.99-6.03,6.92-10.46,8.13l-166.92,45.87c-4.43,1.22-9.16.62-13.15-1.65-3.99-2.27-6.92-6.03-8.13-10.46l-13.76-50.08ZM90.03,173.87l4.59,16.69-50.08,13.76c-4.43,1.22-9.16.62-13.15-1.65-3.99-2.27-6.92-6.03-8.13-10.46l-9.17-33.38c-1.22-4.43-.62-9.16,1.65-13.15,2.27-3.99,6.03-6.92,10.46-8.13l33.38-9.17,30.45,45.49ZM90.03,173.87l217-59.63c4.43-1.22,8.19-4.14,10.46-8.13,2.27-3.99,2.86-8.72,1.65-13.15l-18.35-66.77c-1.22-4.43-4.14-8.19-8.13-10.46-3.99-2.27-8.72-2.86-13.15-1.65L29.12,82.89l60.91,90.98Z" fill="none" stroke="#dbe9fd" stroke-linecap="round" stroke-linejoin="round" stroke-width="26.93"/></g></svg>