<?xml version="1.0" encoding="UTF-8"?><svg id="Lag_2" xmlns="http://www.w3.org/2000/svg" width="350.54" height="570" viewBox="0 0 350.54 570"><g id="Opmærkning"><path d="M277.39,485.57l3.38,6.7,6.59-3.32-3.21-6.64-6.75,3.26ZM173.13,423.32c-3.7,1.87-5.19,6.38-3.32,10.08,1.87,3.7,6.38,5.19,10.08,3.32l-6.76-13.4ZM195.42,400.88l62.52-31.53-6.76-13.4-62.52,31.53,6.76,13.4ZM273.71,400.61l-62.52,31.53,6.76,13.4,62.52-31.53-6.76-13.4ZM211.18,432.14c-4.3,2.17-7.08,3.56-9.27,4.43-2.1.83-2.99.89-3.46.87l-.85,14.98c3.54.2,6.75-.68,9.83-1.89,2.98-1.18,6.46-2.94,10.51-4.99l-6.76-13.4ZM174.27,431.14c2.04,4.05,3.79,7.54,5.49,10.26,1.75,2.81,3.81,5.42,6.78,7.36l8.22-12.55c-.39-.26-1.07-.83-2.27-2.75-1.25-2.01-2.66-4.78-4.82-9.08l-13.4,6.76ZM198.45,437.43c-1.31-.08-2.59-.49-3.69-1.22l-8.22,12.55c3.3,2.17,7.12,3.42,11.07,3.65l.85-14.98ZM281.45,377.1c2.17,4.3,3.56,7.07,4.43,9.27.83,2.1.89,2.99.87,3.46l14.98.85c.2-3.54-.68-6.75-1.9-9.83-1.18-2.98-2.94-6.46-4.98-10.51l-13.4,6.76ZM280.46,414.01c4.05-2.04,7.54-3.79,10.26-5.49,2.8-1.75,5.42-3.81,7.36-6.78l-12.55-8.23c-.26.4-.83,1.07-2.75,2.27-2.01,1.25-4.78,2.66-9.08,4.82l6.76,13.4ZM286.75,389.83c-.07,1.32-.49,2.59-1.22,3.69l12.55,8.23c2.16-3.31,3.42-7.12,3.65-11.07l-14.98-.85ZM257.94,369.35c4.3-2.17,7.08-3.56,9.27-4.43,2.1-.83,2.99-.89,3.46-.87l.85-14.98c-3.54-.2-6.75.68-9.83,1.89-2.98,1.18-6.46,2.94-10.51,4.99l6.76,13.4ZM294.85,370.34c-2.04-4.05-3.79-7.54-5.49-10.26-1.75-2.81-3.81-5.42-6.78-7.36l-8.22,12.55c.39.26,1.07.84,2.26,2.75,1.25,2.01,2.66,4.78,4.82,9.08l13.4-6.76ZM270.67,364.05c1.31.08,2.59.49,3.69,1.22l8.22-12.55c-3.31-2.17-7.12-3.42-11.07-3.65l-.85,14.98ZM188.66,387.48c-4.05,2.04-7.54,3.79-10.26,5.49-2.81,1.75-5.42,3.81-7.36,6.78l12.55,8.23c.26-.4.83-1.07,2.75-2.27,2.01-1.25,4.78-2.66,9.08-4.82l-6.76-13.4ZM187.67,424.39c-2.17-4.29-3.56-7.07-4.43-9.27-.83-2.1-.89-2.99-.87-3.46l-14.98-.85c-.2,3.54.68,6.75,1.89,9.83,1.18,2.98,2.94,6.46,4.99,10.51l13.4-6.76ZM171.04,399.74c-2.17,3.31-3.42,7.12-3.65,11.06l14.98.85c.07-1.32.49-2.59,1.22-3.69l-12.55-8.23ZM293.21,544.81l-18.02-35.73-13.4,6.76,18.02,35.73,13.4-6.76ZM297.53,497.82l18.02,35.73,13.4-6.76-18.02-35.73-13.4,6.75ZM315.54,533.55c2.22,4.4,3.53,7.03,4.23,9.04.32.92.4,1.42.42,1.66,0,.05,0,.09,0,.11v.03s0,0,0,0l14.25,4.7c1.37-4.15.68-8.02-.49-11.41-1.1-3.18-2.98-6.87-5.01-10.89l-13.4,6.76ZM316.76,563.74c4.02-2.03,7.72-3.87,10.5-5.78,2.96-2.03,5.81-4.73,7.18-8.88l-14.25-4.7s0,0,0,0c0,0,0,0-.02.02-.01.02-.04.05-.07.09-.15.18-.52.53-1.32,1.08-1.76,1.2-4.37,2.54-8.77,4.76l6.75,13.4ZM280.73,492.29c4.4-2.22,7.04-3.53,9.04-4.23.92-.32,1.42-.4,1.66-.42.05,0,.09,0,.11,0h.03s0,0,0,0l4.7-14.25c-4.15-1.37-8.01-.68-11.4.49-3.19,1.1-6.87,2.98-10.89,5.01l6.76,13.4ZM310.92,491.07c-2.03-4.02-3.87-7.72-5.78-10.5-2.03-2.96-4.72-5.81-8.88-7.18l-4.7,14.25s0,0,0,0c0,0,0,0,.02.02.02.01.05.04.09.07.18.15.53.52,1.08,1.32,1.2,1.76,2.54,4.37,4.76,8.77l13.4-6.75ZM275.2,509.09c-2.22-4.4-3.53-7.03-4.23-9.04-.32-.92-.4-1.42-.42-1.66,0-.05,0-.09,0-.11,0-.02,0-.03,0-.04,0,0,0,0,0,0l-14.25-4.69c-1.37,4.15-.68,8.01.49,11.4,1.1,3.18,2.98,6.87,5.01,10.89l13.4-6.76ZM273.97,478.89c-4.02,2.03-7.72,3.87-10.5,5.78-2.96,2.03-5.81,4.73-7.18,8.88l14.25,4.69s0,0,0,0c0,0,0,0,.02-.02.01-.02.03-.05.07-.09.15-.18.52-.54,1.32-1.08,1.76-1.2,4.37-2.54,8.77-4.76l-6.76-13.4ZM279.82,551.57c2.03,4.02,3.87,7.72,5.78,10.5,2.03,2.96,4.72,5.81,8.88,7.18l4.7-14.25s0,0,0,0c0,0,0,0-.02-.02-.02-.01-.05-.04-.09-.07-.18-.15-.53-.52-1.08-1.32-1.2-1.76-2.54-4.37-4.76-8.77l-13.4,6.76ZM310.01,550.35c-4.4,2.22-7.04,3.53-9.04,4.23-.92.32-1.42.4-1.66.42-.05,0-.09,0-.11,0h-.03s0,0,0,0l-4.7,14.25c4.15,1.37,8.01.68,11.4-.49,3.19-1.1,6.87-2.98,10.89-5.01l-6.75-13.4ZM298.55,449.48l33.66-23.82-8.67-12.25-33.66,23.82,8.67,12.25ZM294.11,362.31l-9.33,4.7,6.76,13.4,9.33-4.71-6.76-13.4ZM343.89,378.72c-1.96-3.89-3.59-7.12-5.1-9.69-1.54-2.62-3.21-4.98-5.45-6.98l-9.99,11.2c.59.53,1.34,1.41,2.51,3.4,1.2,2.04,2.58,4.76,4.63,8.83l13.4-6.76ZM300.86,375.71c4.06-2.05,6.79-3.42,8.97-4.34,2.13-.9,3.25-1.17,4.04-1.24l-1.38-14.94c-2.99.28-5.74,1.19-8.53,2.37-2.74,1.16-5.97,2.8-9.86,4.76l6.76,13.4ZM333.34,362.05c-5.7-5.08-13.25-7.57-20.85-6.87l1.38,14.94c3.45-.32,6.89.81,9.47,3.12l9.99-11.2ZM332.21,425.66c5.85-4.14,10.38-7.22,13.29-11.33l-12.25-8.66c-1.05,1.49-2.86,2.9-9.7,7.74l8.67,12.25ZM330.49,385.47c3.77,7.48,4.71,9.58,4.94,11.38l14.88-1.91c-.64-4.99-3.2-9.84-6.43-16.23l-13.4,6.76ZM345.49,414.33c3.98-5.63,5.7-12.54,4.82-19.38l-14.88,1.91c.4,3.11-.38,6.25-2.19,8.81l12.25,8.66ZM289.88,437.23c-6.55,4.64-12.04,8.51-16.05,12.17-4.16,3.81-7.43,8.01-8.82,13.59l14.56,3.63c.4-1.63,1.39-3.41,4.39-6.15,3.15-2.88,7.72-6.13,14.59-10.99l-8.67-12.25ZM284.15,482.31c-4.64-9.6-5.24-12.99-4.57-15.69l-14.56-3.63c-2.15,8.64,1.23,16.76,5.62,25.84l13.51-6.53ZM280.73,492.29l.04-.02-6.76-13.4-.04.02,6.76,13.4ZM177.59,421.07l-4.47,2.25,6.76,13.4,4.47-2.25-6.76-13.4Z" fill="#dbe9fd" stroke-width="0"/><path d="M30.73,107.48l88.15-44.45c-2.68-5.45-9.41-19.09-14.88-30.01C97.18,19.36,86.25-2.5,75.32.23c-20.74,5.19-5.46,30.05-10.93,32.79-5.46,2.73-12.29-15.03-24.59-5.46-10.62,8.26,13.66,40.98,8.2,45.08-5.46,4.1-9.56-15.03-24.59-6.83-12.02,6.56-.13,30.52,7.32,41.68Z" fill="#dbe9fd" stroke-width="0"/><path d="M15.21,53.51c-6.83-1.37-19.66-7.87-13.66-21.86,4.1-9.56,15.03-1.37,19.12,4.1,2.46,3.28,10.93,20.49-5.46,17.76Z" fill="#dbe9fd" stroke-width="0"/><path d="M118.88,63.03L30.73,107.48l134.09,265.9c3.4,6.74,11.61,9.44,18.35,6.05l63.75-32.15c6.74-3.4,9.44-11.61,6.05-18.35L118.88,63.03Z" fill="#dbe9fd" stroke-width="0"/></g></svg>