<?xml version="1.0" encoding="UTF-8"?><svg id="Lag_2" xmlns="http://www.w3.org/2000/svg" width="483.39" height="413.14" viewBox="0 0 483.39 413.14"><g id="Opsyn"><path d="M358.51,83.75C340.14,36.53,293.88,3.02,239.7,3.02s-100.43,33.51-118.78,80.73c-2.74,7.01-2.74,14.79,0,21.81,18.35,47.19,64.6,80.73,118.78,80.73s100.43-33.53,118.8-80.73c2.72-7.01,2.72-14.79,0-21.81ZM336.9,97.33c-15.04,38.65-52.9,66.03-97.2,66.03s-82.16-27.39-97.2-66.03c-.67-1.73-.67-3.63,0-5.36,15.04-38.65,52.9-66.03,97.2-66.03s82.16,27.39,97.2,66.03c.67,1.73.67,3.63,0,5.36Z" fill="#dbe9fd" stroke="#dbe9fd" stroke-width="6.05"/><path d="M239.71,129.01c19.17,0,34.71-15.38,34.71-34.36s-15.54-34.36-34.71-34.36-34.71,15.38-34.71,34.36,15.54,34.36,34.71,34.36Z" fill="none" stroke="#dbe9fd" stroke-linecap="round" stroke-linejoin="round" stroke-width="20.82"/><line x1="241.61" y1="251.2" x2="239.43" y2="401.89" fill="none" stroke="#dbe9fd" stroke-linecap="round" stroke-width="22.22"/><path d="M284.34,357.39l-44.48,44.48c-.2.2-.53.2-.73,0l-44.48-44.48" fill="none" stroke="#dbe9fd" stroke-linecap="round" stroke-width="22.22"/><line x1="119.27" y1="212.62" x2="11.51" y2="317.97" fill="none" stroke="#dbe9fd" stroke-linecap="round" stroke-width="22.22"/><path d="M74.73,318.07l-62.9.2c-.28,0-.52-.23-.52-.51l-.2-62.9" fill="none" stroke="#dbe9fd" stroke-linecap="round" stroke-width="22.22"/><line x1="364.13" y1="211.86" x2="471.88" y2="317.22" fill="none" stroke="#dbe9fd" stroke-linecap="round" stroke-width="22.22"/><path d="M408.66,317.31l62.9.2c.28,0,.52-.23.52-.51l.2-62.9" fill="none" stroke="#dbe9fd" stroke-linecap="round" stroke-width="22.22"/></g></svg>