<?xml version="1.0" encoding="UTF-8"?><svg id="Lag_1" xmlns="http://www.w3.org/2000/svg" width="113" height="78" viewBox="0 0 113 78"><path d="M25.38,1.03c6.9,0,12.7,2.42,17.4,7.26,4.6,4.84,6.9,11.75,6.9,20.74,0,8.2-1.55,15.41-4.65,21.63-3.2,6.32-7.2,11.65-12,16-4.9,4.44-9.9,7.9-15,10.37l-8.85-9.04c2.4-.99,5.35-2.91,8.85-5.78,3.4-2.77,6.4-5.98,9-9.63,2.6-3.65,3.95-7.36,4.05-11.11-1,1.09-2.6,1.98-4.8,2.67-2.2.79-4.5,1.19-6.9,1.19-4.6,0-8.8-1.73-12.6-5.19-3.8-3.36-5.7-8.3-5.7-14.81,0-7.41,2.35-13.33,7.05-17.78C12.73,3.21,18.48,1.03,25.38,1.03ZM87.78,1.03c6.9,0,12.7,2.42,17.4,7.26,4.6,4.84,6.9,11.75,6.9,20.74,0,8.2-1.55,15.41-4.65,21.63-3.2,6.32-7.2,11.65-12,16-4.9,4.44-9.9,7.9-15,10.37l-8.85-9.04c2.4-.99,5.35-2.91,8.85-5.78,3.4-2.77,6.4-5.98,9-9.63,2.6-3.65,3.95-7.36,4.05-11.11-1,1.09-2.6,1.98-4.8,2.67-2.2.79-4.5,1.19-6.9,1.19-4.6,0-8.8-1.73-12.6-5.19-3.8-3.36-5.7-8.3-5.7-14.81,0-7.41,2.35-13.33,7.05-17.78,4.6-4.35,10.35-6.52,17.25-6.52Z" fill="#daeefa" stroke-width="0"/></svg>