<?xml version="1.0" encoding="UTF-8"?><svg id="Lag_2" xmlns="http://www.w3.org/2000/svg" width="295.5" height="327.83" viewBox="0 0 295.5 327.83"><g id="Security"><path d="M281.03,150.71c0,73.19-53.13,141.74-125.72,161.79-4.94,1.35-10.33,1.35-15.27,0C67.45,292.44,14.32,223.89,14.32,150.71v-65.7c0-12.27,9.28-26.19,20.8-30.83L118.49,20.04c18.71-7.63,39.81-7.63,58.52,0l83.37,34.12c11.37,4.64,20.8,18.56,20.8,30.83l-.15,65.7Z" fill="none" stroke="#dbe9fd" stroke-linecap="round" stroke-linejoin="round" stroke-width="28.64"/><g id="Lag_12"><path d="M109.66,126.38v-11.34c0-18.78,16.61-34.01,37.09-34.01s37.09,15.23,37.09,34.01v11.34" fill="none" stroke="#dbe9fd" stroke-linecap="round" stroke-width="14.31"/><path d="M84.93,173.45c0-22.19,0-33.28,5.43-40.18,5.43-6.89,14.18-6.89,31.66-6.89h49.46c17.49,0,26.23,0,31.66,6.89,5.43,6.89,5.43,17.99,5.43,40.18s0,33.28-5.43,40.18c-5.43,6.89-14.18,6.89-31.66,6.89h-49.46c-17.49,0-26.23,0-31.66-6.89-5.43-6.89-5.43-17.99-5.43-40.18Z" fill="#dbe9fd" stroke="#dbe9fd" stroke-width="3.58"/><path d="M145.99,157.93v32.19" fill="none" stroke="#fff" stroke-linecap="round" stroke-width="14.31"/></g></g></svg>