<?xml version="1.0" encoding="UTF-8"?><svg id="Lag_2" xmlns="http://www.w3.org/2000/svg" width="342.21" height="332.02" viewBox="0 0 342.21 332.02"><g id="Udlejning"><path d="M171.98,279.1c-2.42,0-4.18-1.61-4.18-4.18v-9.23c-16.19-1.17-28.94-9.16-32.46-21.4-.37-1.25-.59-2.56-.59-3.74,0-4.18,2.86-7.03,7.33-7.03,3.52,0,6.08,1.83,7.62,5.72,2.42,6.89,7.62,12.02,18.1,13.12v-31.95l-3-.73c-18.61-4.32-28.65-12.68-28.65-27.55,0-16.49,13.19-27.26,31.65-28.65v-9.31c0-2.56,1.76-4.18,4.18-4.18s4.1,1.61,4.1,4.18v9.31c15.61,1.25,27.48,9.53,30.92,21.62.37,1.25.51,2.42.51,3.74,0,3.96-2.93,6.67-7.18,6.67-3.81,0-6.23-2.12-7.77-5.64-3.08-7.62-8.35-12.02-16.49-13.04v30.55l3.52.88c19.27,4.47,29.82,12.38,29.82,27.99,0,18.03-14.65,28.14-33.34,29.46v9.23c0,2.56-1.76,4.18-4.1,4.18ZM151.68,190.88c0,6.67,4.4,11.58,16.12,14.58v-28.65c-10.55,1.25-16.12,7.33-16.12,14.07ZM193.89,237.7c0-7.62-4.18-12.09-17.81-15.31v30.04c12.53-.95,17.81-6.89,17.81-14.73Z" fill="#dbe9fd" stroke="#dbe9fd" stroke-miterlimit="10" stroke-width="5.82"/><rect x="13.11" y="109.22" width="316" height="209.7" rx="21.93" ry="21.93" fill="none" stroke="#dbe9fd" stroke-linecap="round" stroke-linejoin="round" stroke-width="26.21"/><circle cx="171.83" cy="14.56" r="13.11" fill="#dbe9fd" stroke="#dbe9fd" stroke-miterlimit="10" stroke-width="2.91"/><polyline points="50.5 109.22 171.83 14.56 290.28 109.22" fill="none" stroke="#dbe9fd" stroke-miterlimit="10" stroke-width="14.56"/></g></svg>