<?xml version="1.0" encoding="UTF-8"?><svg id="Lag_2" xmlns="http://www.w3.org/2000/svg" width="1210.78" height="1063.26" viewBox="0 0 1210.78 1063.26"><path d="M321.55,7.98c-7.56-1.26-2.76-4.06-4.27-6.07l-5.44.99c-4.45,1.92-9.64,3.28-13.86,5.65-8.66,4.93-24.94,3.1-31.95-2.48-4.77.55-7.79-.32-9.83-1.99-3.17.83-7.13.4-10.9.28-3.77-.11-7.36.08-9.79,2.09-1.31,2.59-6.86,5.03-2.15,7.82,3.4,1.83,7.07,2.67,12.46.88,4.46-1.45,8.52-1.3,11.07,1.01l4.2-.07c5.21,1.28,12.23-6.22,16.34.45,1.63-.12,4.64-.42,4.7-.34,4.14,5.79,13.75,3.01,22.08,2.35.04-.52.08-1.04.12-1.57-2.28-.67-1.82-1.07.75-1.24.41.09.85.11,1.31.08l.26-2.25c-1.42-.12-3.5.15-3.48-.86,0-.22,1.02-.63,1.54-.62,2.41.03,1.73.87,1.98,1.46l8.25,1.1c.67.08,1.35.11,2.05.08-1.02-1.24-7.79-2.32-1.82-3.75,6.31-1.51,8.45.6,9.74,2.7,1.19,2.16,3.87,2.57,8.11,1.15.41-3.14,6.51-2.11,10.73-2.45-.07-.33-.14-.65-.2-.97-3.97-1.68-.86-1.94,2.56-2.15,4.64-2.09,5.06,1.06,7.97,1.12l.6-.43-.67.4c.26,1.81-1.49,4.12,6.94,3.41,5.25-.44,9.74.24,8.81,3.12l5.19.3,4.6-3.58c-2.83-.09-4.07-.78-4.3-1.87-3.39-1.07-3.66-2.17-.33-3.31,4.52-.18,6.02-1.14,4.43-2.91-.75-.83-1.8-1.91,1.2-2.08,1.75-.1,5.55.7,5.5,1.02-.6,4.7,11.38,4.86,15.99,7.62.94.57,1.33,1.29,1.98,1.94l.8,1.34c10.65.35,21.88-1.02,31.39,2.65,2.4.93,5.82-.15,8.23-.79,4.37-1.14,7.29-.61,9.61,1.18l20.57-1.37c.14-.46.27-.92.41-1.39.63-1.94,3.95-2.77,8.12-2.43,3.22.26,2.11,1.75,2.32,2.76,5.69.52,11.38,1.04,17.14,1.56,5.76.52,11.58,1.07,17.55,1.49l-.49.39c.13.54-.82,1.23,1.44,1.44.61.79.82,1.76,3.74,1.76-.9-2.96,4.83-3.49,9.48-3.83,10.04-.71,21.74-2.03,30.4.26,5.99,1.54,10.06,1.89,15.96,2.1,3.57.13,1.47,2.08,1.7,3.22,11.42.73,22.85,1.31,34.25,2.29l.1-2.2c-2.17-1.41-1.54-2.59-.33-3.93,2.09-2.31-.75-3.65-6.88-3.94-1.78-.5-3.56-.99-5.34-1.45-3.23-.33-7.15-.07-8.46-2.01l5.99-.3c.82-1.02,4.4-1.91-.08-3.15-2.45,1.08-4.88,1.12-7.27-.37l-8.57-.48c-3.74,3.51-10.81,5.61-18.53,7.43-5.24-2.69-13.01-4.78-13.96-8.5-7.55.19-15.09.65-22.64-.79-.24,1.23.54,2.79-.96,3.6-2,1.08,5.8,3.27-1.36,3.12-4.96-.1-3.91-1.88-3.31-3.32.27-.66.4-2.97-2.92-.88-6.07,3.82-4.61-1.73-9.74-1.25-.8.55-1.4,1.54-2.43,1.58-2.96.12-2.89-1.1-3.67-1.9-9.63.05-18.93-2.12-29.22-.47-5.34.86-8.09-2.55-9.61-4.79-15.75-.45-31.51-.51-47.26-.73.02.72.51,1.5-.01,2.14-1.48,1.8,6.01,5.27-2.14,5.26-7.21,0-.94-3.1-1.95-4.74-.29-.47-2.69-.76-4.12-1.14-3.32-.68-6.71-1.17-10.14-1.54-3.43-.34-6.91-.53-10.4-.64-6.99-.22-14.04-.12-20.95-.08-4.03.02-10.55-2.95-13.77.56-3.68,3.16-27.51,7.55-35.16,6.26ZM367.27,3.29l1.49,1.04c-.68.11-1.48.36-2.01.28-.52-.07-.76-.49-1.13-.76.57-.19,1.11-.38,1.65-.56ZM445.66,7.74c.3-.08.71-.09,1.08-.13-.06.46-.48.47-1.08.13Z" fill="#202020" stroke-width="0"/><path d="M1018.21,91.02c17.4,2.92,34.85,2.54,52.26,4.15,2.91-5.75,13.83-1.16,21.17-1.19,1.64-1.63,1.68-3.81,9.27-1.2,4.59,1.6,11.45,1.83,17.47,2.7,4.92-.18-9.26-8.55,8.13-3.38,2.62.11,6.19,1.32,6.79-.75.3-1.04,2.97-1.99,5.24-1.35,2.32.65,4.35,2.19,5.07,3.36,1.18,1.94-3.27.57-4.75.9-2.9.66-5.05,1.79-7.51,2.72,1.26,1.59,7.72,1.61,7.12,3.75,4.27-2.77,17.48,3.2,17.98-1.23.25-2.21-4.99-5.43-7.06-8.37-2.14-3.05-12.66-4.93-21.12-5.46-3.81-.24-7.52.3-11.3-.02-3.66-.3-8.32,1.07-10.8-.94-2.66-2.14,7.32-.28,5.7-2.62-5.62-2.2-11.65-3.5-18.51-2.87-.87,3.43-2.89,5.8-12.63,1.72-3.63-1.52-7.93-1.31-12.17-1.27-4.25.05-8.45,0-11.89-2.12l-2.77-.38-5.38.61c-9.21,2.92-18.78,2.62-28.85-1.6-6.38,2.23-13.44,3.11-22.22.3l-3.79-.39c.43.33.68.76,1.32.99,4.94,1.72,8.17,3.46,2.78,5.38-1.41.5-5.2.85-4.47-.16,1.71-2.38-14.79-4.72-2.35-7.11-3.24-.68-8.09-.58-7.84-2.94l-5.7-.39c-.3,1.25,4.15,2.93.19,3.74-3.14.64-6.42-.21-8.84-1.54l-3.6-.19c-7.4-.17-8.04,2.18-9.26,4.36-.71,1.26-2.52,2.17-6.03,1.91-1.31-.1-3.32-.76-3.7-1.26-1.06-1.42,1.82-1.53,4.11-1.9,8.26-1.33-6.21-4.7,1-6.18-1.6-2.31-6.16-2.47-10.42-2.85l-.17,1.51c-.02,1.49,6.16,3.99-.62,4.25-5.01.19-8.37-1.9-7.18-4.32l-6.53-.45-9.17,1.49c-2.65,1.53-4.01,3.21-1.99,5.32.93.98.63,1.83-2.25,1.79-3.46-.05-3.93-1.21-4.39-2.28l-4.92.77c-.11,1.11-.22,2.23-.33,3.33,4.11.12,8.46.66,12.5.73,4.04.08,7.77-.36,10.67-2.3,2.2-1.48,5.18-.35,5.55,1.36.27,1.24-.47,2.53,2.95,3.47,14,4.02,28.6,5.28,43.78,4.47,9.47-3.5,28.52-1.64,39.52,3.97ZM1112.4,90.28c-.96-.11-1.86-.65-2.78-1.01.84-.24,1.64-.69,2.54-.65.93.05,1.97.56,3.68,1.12-1.58.26-2.55.65-3.44.55Z" fill="#202020" stroke-width="0"/><path d="M429.21,59.59c6.91.21,9.87-2.1,13.19-4.31,1.66-1.1.28-3.53,5.81-3.12,4.47.33,3.63,2.26,2.95,3.96-.64,1.62-.92,3.23-1.36,4.85,5.38-.33,10.75-.71,16.13-.96-.09-1.66-2.16-3.69,5.17-4.05,5.53-.27,7.96-1.47,7.58-3.68-.72-1.23-7.18-.95-4.16-3.08,1.06-.75,3.56-1.7,5.25-1.76,5.66-.21,2.08,2.1,3.4,3.13.74.57,1.31,1.22,2.38,1.65,2.1.84,8.05.91,5.94,2.45-2.43,1.77-6.86-.31-10.71.33l.26,3.08c15.3-.62,30.05-2.49,44.56-5.31-2.62-3.24-4.45-6.97-16.85-3.25-2.05.61-5.42.65-6.38-.62-1.01-1.35,1.56-1.91,4.41-2.36.8-1.82,1.61-3.63,2.05-5.59l-4.25-.61,3.26-1.69c-5.08-.69-9.95-.76-14.62-.2-4.67.6-9.14,1.8-13.41,3.53-2.12,2.28-6.38,5.05-11.15,3.39-9.14-3.25-24.43,4.39-30.88-1.38-4.19,1.24-8.56,1.74-12.98,2.15-4.42.42-8.88.67-13.25,1.27.76,3.73-5.89,4.99-11.62,4.49-5.11-.47-8.03.29-11.66,1.71,1.69,3.18,10.25-.28,14,1.42,1.41.63,5.54-3.13,7.76-.97,1.37,1.33-2.87,3.09-5.45,4.53-2.62,1.47-4.76,1.93-8.7,1.16-4.96-.96-10.66-1.33-14.53,2.6-2.32,2.36-7.14,1.39-9.95.94-4.92-.75-1.18-2.11,1.48-3.36,4.2-1.99,8.36-4.05,7.21-6.65l-2.92-.67c-2.2,2.42-5.73,3.48-9.7,4.18-3.97.71-8.4.99-12.4,1.74-3.1.58-10.52.01-7.84,3.79.64.87-9.31.71-9.75-.32-.9-2.13-3.5-1.62-7.04-1.05l-2.61.38c-4.99-.17-11.03-.66-8.34,3.26,2.82,1.99,2.72,1.93-1.27,3.36-1.75.63-4.06,1.63-4.34,2.34-.99,2.5,6.17.66,7.58,2.01,3.69-.42,7.6-.23,11.26-.62,3.67-.39,7.11-1.31,9.96-3.78,1.46-1.29,6.38-.39,6.13,0-1.08,1.7,9.19.96,2.25,3.65.44,1,1.26,1.08,4.18.54,4.78-.9,9.53-2.1,14.34-2.99,4.82-.86,9.71-1.37,14.74-.99.21-4.08,3.28-4.85,7.07-4.76,3.8.08,8.32,1.05,11.49.45,7.42-.82,13.22,1.58,21,.01-2.06-1.97-8.02-4.5,5.27-4.23ZM459.75,53.08l-1.61-.83c.67-.17,1.41-.49,1.98-.48.5.02.79.39,1.2.62-.54.24-1.06.47-1.57.69Z" fill="#161616" stroke-width="0"/><path d="M68.55,22.23c-9.45-1.47-20.8,2.07-29.58-1.15-7.5,4.86-19.34,1.55-28.38,3.3-2.57.5-3.57.31-5.44-.18-5.73-1.52-7.44-10.56-1.21-11.91,6.56-1.42,8.57-3.21,10.16-5.82,1.65-2.7,4.81-5.46,11.24-1.35.71.45,3.32.85,4.42.64,10.75-2.03,21.23-.19,31.9-.51,12.27-.38,24.54-.61,36.82-.75l36.84-.32v2.42c-2.07,0-3.75.24-4.19,1.22-3.66-.36-8.03-.79-11.05-.72-7.26.17-16.26-1.9-21.9,1.7-3.38,2.15-28.25,6.76-33.36,5.62-.85-.19-1.75-.78-1.63-1.15,1.12-3.37-3.55-1.6-5.68-.82-2.56.93-4.09,2.32-6.29,3.45-1.25.64-5.25-.11-4.84,1.1.26.76,2.57,1.44,5.66,1.61,6.45.37,15.53-.75,16.5,3.62Z" fill="#010101" stroke-width="0"/><path d="M430.43,74.42c-6.42-.48-14,.18-18.21-2.43,1.8-.43,4.07-1.39,5.35-1.21,4.97.69,9.66,1.76,13.18-1.11,2.89-2.36-1.33-3.45-4.4-4.87-5.43-2.51-9.52-1.2-13.75.89-2.64,1.3-7.11,2.01-9.37,1.24-7.74-2.63-10.9.6-15.25,2.48-2.85.35-6.51.22-7.11,2.03-.12.36,1.26,1.06,1.78,1,3.75-.41,3.74-1.95,5.31-3.03l8.45,5.01c-4.95,4.81-12.01,2.52-18.56,2.11.05-1.54-.49-2.89-5.19-2.75,0-1.06-.52-2.14.07-3.17,1.82-3.16-5.9-2.08-8.34-3.31-.67-.34-2.3-.54-2.71.31-.84,1.74,1.83,2.17,4.82,2.88,1.69.41.63,2.51.81,3.85-2.7-1.31-9.8,1.74-10.81-1.24.91-.47,3.49-.89.89-1.49l-.81,1.5c-3.67,1.02-1.15,3.6-5.79,3.89-1.63.1-3.15-1.94-4.72-3-.02-.93-.65-1.68-2.91-1.94.08-.35.19-.69.32-1.04l2.44-.31c3.91-2.08,16.55-5.05-.96-4.98-1.14,0-1.79-1.27-2.66-1.94,7.5-.59,15.48.34,22-3.49.79-.47,11.09,1.34,17.83.97,1.96,1.16,4.26,1.21,8.31,1.08,5.94-.19,11.95-1.2,17.95-1.79,3-.29,6.01-.49,8.98-.39,2.95.1,5.86.44,8.72,1.15,4.43-3.49,12.73.04,17.47-1.97,4.64-1.97,8.42-2.63,14.31-1.18,4,.97,6.85,1.05,8.71.47,1.86-.6,2.74-1.88,2.79-3.61l13.1.11c-.55,2.14,3.07,3.42,5.72,4.91-5.93,2.9-12.07,5.76.62,8.18,1.62.31.58,1.24-1.03,1.73-5.14-2.06-12.54,1.15-16.9-.63-10.03-4.09-7.95.12-9.22,2.17l-2.76.03c-.29-1.22-1.81-1.88-4.96-1.8-.41-1.59-2.54-2.04-5.61-2.07l.18-1.77c-3.03.23-2.51,1.14-2.49,1.96-5.87,1.93-14.79,2.63-15.59,6.58Z" fill="#161616" stroke-width="0"/><path d="M216.82,14.4c-3.39.09-5.8-.65-7.6-1.64-3.79-2.1-8.45-4.18-1.48-6.88,10.96-4.24,11.54,1.78,17.28,2.69l10.49-2.13c2.43-2.01,6.02-2.2,9.79-2.09,3.77.12,7.73.55,10.9-.28.03-.94.06-1.89.09-2.83-6.09.4-13.19-2.63-17.71-.13-5.71,3.14-11.68,2.46-18.41,1.96-26.48-2.03-53.06-1.06-79.64.84-.44,1.35-.37,2.61,2.96,3.33l5.11-.18,2.61-1.15c.79-.58,1.59-.65,2.4-.05,16.82.23,19.18,1.39,12.9,6.34-.19.15-.24.33-.36.5-14.91-2.6-18.63,6.97-33.18,5.55-6.05-.6-14.07-.57-15.58,3.51,3.96-.05,8.49,3.1,9.75,1.34,2.42-3.37,6.61-1.81,10.64-1.98,14.4-.61,28.45-1.33,43.27-1.09,5.27.1,10.59.02,15.93-.1,5.34-.11,10.71-.3,16.09-.5,10.77-.4,21.6-.83,32.4-.72,4.29.06,11.14.95,11.43-2.55-2.55-2.3-6.62-2.46-11.07-1.01-5.39,1.79-9.06.95-12.46-.88-5.54,1.17-11.08,2.54-16.54.14ZM190.24,7.32c-.09,1.21-1.57,3.33-5.89,2.78-4.18-.54-10.32-1.95-10.58-3.23-.52-2.57,4.97-.11,6.9-.81,3.8.25,9.83-2.26,9.57,1.27ZM178.08,17.42c-2.72.16-7.57.23-7.8-1.79-.13-1.12,1.63-2.27,4.52-2.26,3.12.02,6.16.59,10.19,1.03-2.95,1.36-4.75,2.9-6.91,3.02ZM193.97,9.28l1.59-.16-.19.47c-1.19,0-1.25-.17-1.39-.31Z" fill="#010101" stroke-width="0"/><path d="M876.58,81.04c-6.48-1.3-11.59-1.44-19.02-.72-10.78,1.01-24.05-.91-36.18-1.93-3.04-.25-6.2-.12-9.3-.19-3.1-.05-6.15-.3-8.95-1.37l.09-3.11c1.41-1.38,4.98-3.49.89-4.21-12.1-2.13-10.22-7.71-18.56-10.59,4.5.28,8.45,1.11,11.92,2.38.45.04.84.15,1.15.33.4,1.45-1.6,3.24,3.24,4.14,3.8.71,6.56.21,7.2-1.55l.65-.4-.6.42c-5.7.76-5.73-2.65-10.42-2.63-.28-.18-.39-.37-.33-.58,5.52-3.05,11.93.45,17.81.27,7.32,3.7,15.22,3.96,23.37,1.63,2.43-.7,4.06-1.76,6.63.31,3.95,3.18,9.97,2.45,15.77,1.77,8.08,2.79,4.12,5.47,1.97,8.18-.56.71-2.34,1.62.52,2.28,2.44.57,3.93-.12,4.99-.9l2.91.26c-1.67,2.28,6.03,3.92,4.28,6.2Z" fill="#161616" stroke-width="0"/><path d="M625.48,34.76c5.17-1.94,10.57-3.54,17.79-2.23,9.04,2.93,18.53,3.39,28.67.7,1.93,1.38,5.54,1.67,8.77,2.2,1.79-.3,3.59-.65,5.38-.92-.64,1-1.64,2.9-1.88,2.89-9.83-.55-16.41,3.46-25.86,3.2-6.88-.18-13.17,0-14.97,3.57-.05.1-.75.16-1.13.25-1.3-.34-2.61-.68-3.92-1.02,1.07-3.91-5.87-3.3-11.15-2.84-4.34.38-8.69.56-13.05.67-2.18.04-4.36.07-6.55.11-2.18.05-4.37.11-6.56.16-8.75.24-17.53.61-26.3,2-5.29.82-8.08,1.03-8.9,1.52-.82.47.35,1.2,2.98,3.12,1.6,1.18,2.68,2.5,4,3.75-10.12-.31-21.68,2.52-30.06-1.21,1.88-.44,3.69-1.06,5.66-1.29,3.23-.38,8.01,1.69,9.29-.78.53-1.01-4.66-2.49-7.95-3.35-1.75-.45-4.98-.05-7.55.02-2.15.06-4.48.27-5.57-.66-1.43-1.21.77-1.98,2.95-2.7,3.43-1.13,4.22-3.45,9.64-3.67,3.35-1.35,6.9-2.45,10.74-3.13,3.84-.67,7.97-.98,12.51-.59,10.45,2.83,22.46,2.24,34.55,1.51-.13.9.45,2.01,2.64,1.91,3.85-.18,1.35-1.62,2.16-2.45,5.21,2.98,10.59,6.71,13.66-.75Z" fill="#202020" stroke-width="0"/><path d="M148.59,7.06l2.61-1.15,1.2-.03,1.2-.02c16.82.23,19.18,1.39,12.9,6.34-.19.15-.24.33-.36.5-14.91-2.6-18.63,6.97-33.18,5.55-6.05-.6-14.07-.57-15.58,3.51-4.42-1.6-12.2-.38-15.55-2.87,4.12-2.32-.07-5.48-2.27-5.36-6.43.36-2.43,2.99-3.3,4.66-.18.34.02.71.05,1.06-4.83,3.24-13.31.07-18.76,2.22-3.42-.97-6.42-.75-8.97.75-.99-4.37-10.07-3.26-16.52-3.62-3.09-.18-5.4-.86-5.66-1.61-.42-1.21,3.58-.46,4.84-1.1,2.2-1.12,3.74-2.51,6.29-3.45,2.13-.78,6.8-2.55,5.68.82-.12.37.78.96,1.63,1.15,5.11,1.14,29.98-3.48,33.36-5.62,5.64-3.6,14.64-1.53,21.9-1.7,3.02-.07,7.39.36,11.04.72,3.56.9,3.7-.27,4.21-1.22v-2.42s5.2-.26,5.2-.26c-.44,1.35-.37,2.61,2.96,3.33.66.52,1.16,1.42,2.02,1.47,2.76.15,2.75-.87,3.09-1.66Z" fill="#202020" stroke-width="0"/><path d="M761.96,58.62l-.22,1.26c-2.23,2.37-4.01,4.87-6.77,7.13-5.88,4.85-16.31,5-24.7.48-1.04-.56-1.55-1.42-2.85-1.75-4.82-1.22-5.04-4.9-.15-6.14q2.04-.51,3.11,1.9c.5,1.14.31,2.6,3.97,2.78,1.12.06,2.42-1.2,3.63-1.86,6.94-.61,6.59-3.23,8.23-5.31-7.86-1.64-15.95-1.79-24.13-1.28,3.25,3.56-4.76,4.09-8.6,5.74l-4.05-2.27-8.28-1.26c-.13.29-.17.58-.12.88,4.96,4-3,7.19-2.85,10.88l5,.24c.09-.17.03-.41.29-.49,3.58-1.09,3.03-4.76,7.36-3.99,6.39,1.17-.85,3.59.31,5.55l2.92,2.5c12.14.04,24.49,1.49,36.4.07l5.15.21c.1-.73.2-1.45.3-2.18l-1.07-.61c.47.16.94.32,1.41.48,1.08.06,2.16.11,3.23.17,1.66-.15,4.02-.98,3.89.74l5.19,1.32-.71-.39-.81.3c3.69-2.27,12.59-1.52,15.3-5.38,1.28-1.81,12.4,2.2,18.44,4.1,1,.32,1.63.84,2.43,1.27,1.41-1.38,4.98-3.49.89-4.21-12.1-2.13-10.22-7.71-18.56-10.59-8.08-1.73-15.96-1.96-23.57-.32ZM726.85,69.06c-.25.59-.85,1.14-1.31,1.71-.34-.32-.95-.64-.95-.95,0-.49.4-.96.7-1.59.75.38,1.63.66,1.56.83Z" fill="#202020" stroke-width="0"/><path d="M372.66,73.76c4.71-.13,5.24,1.21,5.19,2.75l-4.35.68-3.39.12c-8.36,1.43-16.39,3.17-25.47,2.5-3.7-.27-8.99.11-13.25,1.61-4.67,1.64-13.7,2.58-15.27,2.38-4.14-.55-8.22-.76-12.28-.72-2.03.02-4.04.1-6.11.22l-1.61.1-.95.05-.75.02c-.27-.01-.34.04-1.49-.09.08.01-.28-.03-.8-.14-.44-.1-.88-.23-1.31-.39-.43-.16-.85-.35-1.24-.57.51-.55-1.39,1.61-4.82-6.77.26-9.56,4.8-9.22,3.58-9.17.28-.21.57-.42.88-.6.31-.19.62-.36.95-.51.28-.14.74-.31.89-.36.19-.07.38-.13.57-.18l.41-.11,3.28-.7c3.96-.86,7.9-1.98,11.77-3.02,3.86-1.03,7.7-2.13,11.54-3.24,1.41-.41,2.71-.65,3.94-.79,1.23-.12,2.38-.14,3.51-.14,2.26,0,4.4.12,6.75-.22,11.99-1.81,23.98-3.27,35.96-4.89l17.99-2.17,8.99-1.09,9-.99c2.57-.28,5.17-1.04,6.79.11.76,3.73-5.89,4.99-11.62,4.49-5.11-.47-8.03.29-11.66,1.71-1.91-1.19-5.24-.5-8.18-.33l-2.92-.67c-2.2,2.42-5.73,3.48-9.7,4.18-3.97.71-8.4.99-12.4,1.74-3.1.58-10.52.01-7.84,3.79.64.87-9.31.71-9.75-.32-.9-2.13-3.5-1.62-7.04-1.05-1.01-.87-1.91-.7-2.66.41-4.94-.2-10.98-.69-8.28,3.23-1.3.24-2.61.48-3.92.72-4.38-.94-8.87-1.68-14.25,1.41-2.61-.79-5.25-1.78-7.87-1.76l-.49.02-.25.02h-.12c-.07.02,0,0-.24.05l-.26.06-.25.06-.35.1-.18.06-.09.03-.35.13c-.8.31-1.58.76-2.26,1.29l-.25.2c.05-.05-1.18.95-1.89,2.18-.84,1.27-1.64,3.64-1.26,6.05.35,2.42,1.6,4.16,2.53,5.08,1.02,1,1.79,1.39,1.66,1.32l.35.21c.24.13.49.26.74.37.51.23,1.05.41,1.58.54.27.06.54.12.8.15l.11.02c.28.04.56.06.84.08h.29s.4.02.4.02c.39,0,.6-.01.82-.03.83-.07,1.5-.22,2.2-.48,1.39-.52,2.76-1.44,4.18-2.92l7.57-.88c1.87,2.44,6.86,1.08,10.95.81,5.99-.39,4.77-2.15,5.06-3.62,7.24,3.13,14.04,1.38,20.72-1.84,1.57,1.06,3.09,3.1,4.72,3,4.64-.29,2.12-2.87,5.79-3.89.92,2.96,8.03-.08,10.73,1.22l5.35-.56Z" fill="#010101" stroke-width="0"/><path d="M653.52,70.88c-3.74,1.88-7.84,2.94-13.33.83,3.17-1.71,6.28-3.55,2.59-5.7-2.91-1.69-5.18,1.14-8.33.42-4.19,3.44-6.52,1.31-9.25-.57-3.11-2.14-6.18-2.67-8.33.21-7.46-.76-6.29-3.43-7.61-5.55,1.13-2.44,7.18-3.2,10.14-5.02,5.01-2.18,11.63-2.6,17.92-1.5,4.73.83,8.81.96,13.37.5,4.61,1.39-.26,5.23,7.75,5.43,5.94.2,5-2.34,5.97-3.96l5.28.4c-.41,1.56-1.16,3.11-1.11,4.67.03,1.02,2.45,1.47,4.72,1.51,1.98.04,3.48-.53,2.36-1.3-1.65-1.14-6.26-2.27-1.34-3.27,1.23-.25,5.48,1.83,8.34,2.83.9.4,1.36,1.39,3.24.46l-3.31-.43c2.11-4.31,8.68-3.29,15.57-1.9,2.02,3.65-8.53,5.15-7.86,8.56-11.3-2.28-11.24.61-10.45,3.82-4.54-.69-8.33,1.49-13,.31.76-3.68-4.22-7.13-12.09-6.8-10.9.46,3.45,3.34-.33,5.07-.52.24-.62.64-.91.96Z" fill="#202020" stroke-width="0"/><path d="M702.72,30.84l-4.26-.37-8.13-1.9-3.02-.45c.1-.3.21-.6.34-.89,1.83-.24,2.76-.67,1.32-1.58-.21-.13-.94-.28-1.2-.23-2.4.41.02,1.23-.03,1.85-4.32-.23-7.44-1.11-9.29-2.97-5.89-5.89-16.42-2.46-16.31-1.15.3,4.05-6.49,3.19-11.52,3.95-6.12-1.8-12.18-3.65-18.41-5.39-2.72-.76-8.09-.68-6.42-2.74,1.38-1.7,7.09.05,8.59-.4,4.68-1.4,11.29,4.26,14.19,0,3.49-.07,7.57.27,8.27-1.72,2.92.26,6,.76,7.98-.35,6.42.25,12.89.61,19.28.73,6.32.11,12.1,1.5,17.89,2.81,1.45.32,2.9.64,4.36.96,1.46.33,2.92.63,4.41.88,2.97.51,6.02.83,9.23.8-.08.82-.17,1.64-.25,2.46-3.1-.45-6.32-1.02-8.1.32.05,1.43.01,2.87,4.74,3.48l-2.57,2.94c-3.7-.35-7.39-.77-11.09-1.05Z" fill="#202020" stroke-width="0"/><path d="M487.77,69.95c1.61-.49,2.65-1.42,1.03-1.73-12.69-2.42-6.55-5.29-.63-8.18,1.63.05,3.26.1,4.89.15l-.04,3.17-.6.45.57-.47c4.41-1.19,14.07,1.05,13.26-3.54,7.36.24,13.99-3.75,22.22-.69,1.18.44,6.3-.86,6.54-2.62l7.76-.47c3.39,2.59,13.19,3.55,11.31,7.53-.09.18,1.68.5,2.59.76,5.74-6.36,8.18,1.58,12.69.51-.03.35-.02.71-.02,1.07-13.25,5.69-16.4.48-21.09-3.16l-1.01-.25,1.08.22c-2.66.52-7.55,1-7.64,1.57-1.27,7.91-10.97,3-18.82,2.59-4.09-.21-8.49-.71-12.77-.65-4.28.07-8.43.62-12,2.4-3.53.98-2.95,3.73-9.13,3.57-.07-.74-.13-1.49-.2-2.22Z" fill="#202020" stroke-width="0"/><path d="M908.5,75.22l-4.93.77c-11.91-.04-11.95,3.38-10.95,7.11-3.97,1.01-3.65-1.03-5.53-1.51,3.8-4.65-1.73-9.34-12.47-10.55,2.63-2.37,2.98-4.89.45-7.58,2.88-2.42,5.06-.48,7.38.59-1.61.46-2.06,1.28.07,1.53,2.91.35,2.5-.9,2.84-1.66,6.5-3.19,15.61-.19,22.29.38,5.47.44,11.22.46,16.87.83,5.65.35,11.22,1.02,16.3,2.82l-.17,1.51c-2.55,0-5.09-.01-7.63-.02-2.26-2.11-4.49-1.26-6.71-.5l-9.17,1.49c-.56-1.47-1-3.08-5.89-3.16-3.29-.06-5.24.84-6.87,1.87-3.82,2.4,1.06,4.19,4.14,6.11Z" fill="#010101" stroke-width="0"/><path d="M648.57,18.56c-2.9,4.26-9.51-1.4-14.19,0-1.5.45-7.21-1.3-8.59.4-1.67,2.06,3.7,1.98,6.42,2.74,6.23,1.74,12.3,3.59,18.42,5.39l-2.42,1.77-3.04-.13c-8.16-3.8-19.02-2.73-28.42-4.29-2.17-1.41-1.54-2.59-.33-3.93,2.09-2.31-.75-3.65-6.88-3.94-.01-.38-.03-.75-.04-1.12,0-1.51-1.76-2.38-5.53-2.34-.77-.05-1.52-.15-2.24-.3.82-1.02,4.4-1.91-.08-3.15.1-.37.2-.74.29-1.11l5.66.07,5.66.13c3.77.09,7.54.2,11.31.38,7.54.36,15.07,1.02,22.56,2.42-2.62,2.26-7.26,4.47,1.46,7.01Z" fill="#161616" stroke-width="0"/><path d="M752.34,34.66c3.12.22,3.04-4.23,8.47-.73,4.05,2.64,8.18-.52,12.29.61.94,4.26,6.6,3.79,12.63,2.6,5.11-1.01,9.21-.1,12.89,1.57.48.22.92.43,1.32.65l.15.08-.04.06s-.05.08-.06.13c-.04.09-.06.2-.08.31-.03.22-.13.39-.1.62,0,.22.07.45.11.64.11.39.35.79.45,1.24.04.21.04.43-.03.71-.08.27-.29.46-.61.74-5.57-.15-10.77,1.03-16.66-.23-9.18-1.96-14.3-2.96-19-3.17-4.7-.17-8.98.6-16.48,1.99-.36.07-1.07.15-1.16.09-3.71-2.14-8.51-1.88-13.32-1.56-4.81.33-9.63.66-13.46-1.12.78-1.87.91-3.97,6.18-4.8.15,1.39,1.38,1.61,4.97,1.53,7.59-.18,14.71-.79,21.54-1.94Z" fill="#202020" stroke-width="0"/><path d="M648.57,18.56c-8.72-2.55-4.08-4.75-1.46-7.01,5.95-.76,10.07-2.71,18.19,1.26,5.84,2.83,18.12,1.51,27.78,2.64,12.99,1.4,26.5,3.96,39.78,3.95,5.82,0,9.62.64,8.63,3.53-.96,2.86-5.58,2.23-10.71,1.12-3.59-.46-7.18-.91-10.77-1.37-3.21.03-6.26-.29-9.23-.8-1.49-.25-2.95-.56-4.41-.88-1.46-.32-2.91-.64-4.36-.96-5.79-1.31-11.57-2.7-17.89-2.81-6.38-.11-12.85-.48-19.28-.73-1.5-.65-3.16-1.81-4.48-1.85-2.94-.08-3.31,1.13-3.5,2.2-.7,1.99-4.78,1.65-8.27,1.72Z" fill="#010101" stroke-width="0"/><path d="M548.26,62.73c4.69,3.64,7.84,8.85,21.09,3.16,3.54.49,7.08.97,10.61,1.46,2.82.82,5.74,1.61,5.01,3.32-4.97,2.76-11.46.64-16.9.57-10.38-.2-20.76.28-31.16.45-5.2.1-10.4.15-15.61.07-5.21-.06-10.43-.29-15.66-.59-5.58-.35-6.39-1.34-8.55-2.55,3.57-1.78,7.72-2.33,12-2.4,4.28-.06,8.68.44,12.77.65,7.85.42,17.55,5.32,18.82-2.59.09-.57,4.98-1.05,7.57-1.54Z" fill="#010101" stroke-width="0"/><path d="M572.81,51.87c-1.32-1.25-2.4-2.57-4-3.75-2.64-1.92-3.8-2.65-2.98-3.12.82-.48,3.61-.7,8.9-1.52,8.77-1.39,17.55-1.75,26.3-2,2.19-.05,4.37-.11,6.56-.16,2.18-.04,4.37-.07,6.55-.11,4.36-.1,8.71-.29,13.05-.67,5.28-.46,12.22-1.08,11.15,2.84-9.77,4.35-20.51,4.06-32.42,2.37-7.68-.99-13.48.11-11.84,4.23-7.74-1.41-13.98,1.89-21.27,1.88Z" fill="#161616" stroke-width="0"/><path d="M719.64,39.88c3.83,1.78,8.65,1.44,13.46,1.12,4.81-.32,9.61-.58,13.32,1.56.09.05.8-.03,1.16-.09,7.5-1.39,11.78-2.16,16.48-1.99,4.69.21,9.82,1.21,19,3.17,5.89,1.26,11.09.09,16.66.23-2.63,3.37-5.46,6.66-14.64,7.77l-6.51-2.59c-2.32-2.41-6.12-2.45-11.49-2.41-1.64.01-3.36-.03-5.1-.1-1.75-.02-3.53-.07-5.28-.13-3.5-.11-6.89-.24-9.73-.21-5.72.07-11.08-.9-16.39-1.65-2.66-.36-5.3-.72-7.96-.77-2.66-.04-5.35.13-8.08.67.99-1.49,1.98-2.98,2.97-4.47.73,0,1.45-.04,2.15-.11Z" fill="#161616" stroke-width="0"/><path d="M762.76,27.48c2.97,3.86,5.3,7.33-8.33,5.88-4.4-.42-1.81,1.33-1.59,2.24,6.42,2.97,13.93,2.72,18.9,1.96,12.6-1.94,14.95,1.46,16.98,5.71l2.45.55c2.06-.21,4.42-.32,6.64-.47.28-.02.55-.04.82-.06l.4-.03c.13-.01.32-.02.22-.05-.13-.1-.15-.31-.3-.47-.18-.41-.31-.84-.1-1.16.06-.12.19-.24.35-.34.13-.06.29-.12.48-.16.37-.09.79-.14,1.2-.31.39-.17.89-.52,1.13-1.2.22-.64.24-1.83-1.02-2.95-.23-.19-.43-.39-.63-.59-.19-.18-.36-.37-.49-.56-.28-.38-.46-.79-.59-1.2-.28-.83-.39-1.69-.79-2.5-6.88-.98-13.77-2.11-20.66-2.91-4.47-.52-7.8-1.09-7.97-3.34l-7.72-.75c.19.9-.05,1.81.63,2.7ZM784.3,33.5c.28-.06.73,0,1.34.45-.38,0-.77-.01-1.34-.45Z" fill="#161616" stroke-width="0"/><path d="M1138.47,100.73c4.27-2.77,17.48,3.2,17.98-1.23.25-2.21-4.99-5.43-7.06-8.37-2.14-3.05-12.66-4.93-21.12-5.46-3.81-.24-7.52.3-11.3-.02-3.66-.3-8.32,1.07-10.8-.94-2.66-2.14,7.32-.28,5.7-2.62,12.78-2.32,27.72,3.79,40.94,1.86,4.18-.6,2.91,2.44,6.12,3.24,3,1.6-11.32,1.72.15,4.06,3.51,3.71,13.44,6.97,11.37,11.25-2.43-.02-5.54-.41-7.16.03-4.06,1.13-4.61,6.64-13.87.46-.05-.03-.97.19-2.16.42s-2.65.48-3.77.51c-6.53.18-12.58-.91-17.78-3.29,2.31-4.04,8.99,1.05,12.78.1Z" fill="#010101" stroke-width="0"/><path d="M1174.63,90.07c3.23.25,5.61-.07,7.43-1.06,4.54-2.48,12.68-3.36,18.64-.69,5.32,2.38,9.93,6.02,10.09,9.64.29,6.71-6.89,7.91-22.16,4.74-3.73-.77-8.62.24-12.97.43-4.35-3.22-2.24-5.7,3.04-6.83,5.34-1.14,9.9.74,13.27,3.42,1.24.98,7.24,3.08,7.02.54-.19-2.23,3.62-3.73,1.62-6.09-1.23-1.44-1.7-3.16-5.87-3.85-4.33-.72-6.4.37-7.08,1.79-.72,1.5-1.52,2.68-6.34,1.93-4.67-.73-6.95-2.03-6.68-3.97Z" fill="#010101" stroke-width="0"/><path d="M714.51,44.47c2.73-.54,5.42-.71,8.08-.67,2.66.05,5.31.41,7.96.77,5.31.75,10.68,1.72,16.39,1.65,2.83-.04,6.22.1,9.73.21,1.75.06,3.53.11,5.28.13,1.75.07,3.47.11,5.1.1,5.38-.04,9.18,0,11.49,2.41-4.74,2.42-10.46,2.65-16.41,2.23-5.97-.28-12.18-1.19-17.84-1.27-4.22-.06-8.45-.29-12.69-.56-4.24-.27-8.48-.61-12.72-.68-8.48-.23-16.91-.07-25.14,1.55l-1.35-1.45c2.45-1.62,11.06-3.44-2.04-4.3-4.28-.28-6.71-2.13.68-2.68,7.8.93,13.42,5.44,23.46,2.56Z" fill="#010101" stroke-width="0"/><path d="M469.36,55.02c-.05,1.73-.92,3.01-2.79,3.61-1.86.58-4.71.5-8.71-.47-5.89-1.45-9.66-.79-14.31,1.18-4.74,2.01-13.04-1.52-17.47,1.97-2.86-.72-5.77-1.05-8.72-1.15-2.96-.1-5.98.1-8.98.39-6,.59-12.02,1.6-17.95,1.79-4.06.13-6.36.08-8.31-1.08,10.66-3.77,22.45-4.87,35.4-4.86,8.12.06,16.36.03,25.17-1.5,3.84-.67,8.26-.68,12.85-.52,2.29.11,4.63.22,6.95.32,2.32.13,4.63.27,6.87.33Z" fill="#010101" stroke-width="0"/><path d="M983.07,72.23l-5.7-.39-8.66,2.19c-1.2-.06-2.4-.12-3.61-.19-3.85-1.04-7.69-2.08-11.53-3.11,3.65-2.45,8.88-3.01,14.43-2.83,5.55.2,11.42,1.08,16.37,1.39,9.82.62,19.66,1.7,29.49,2.91,9.82,1.32,19.66,2.65,29.48,3.97l5.16,1.6c-9.21,2.92-18.78,2.62-28.86-1.6-8.29-1.84-17.01-4.46-22.21.3-1.27-.13-2.53-.26-3.8-.39-.9-.16-1.79-.33-2.69-.49.1-.78.24-1.12.38-1.47.29-.24.59-.48.89-.73l-1.9.21-7.24-1.38Z" fill="#010101" stroke-width="0"/><path d="M553.31,7.73c-7.55.19-15.08.65-22.63-.79-6.01-.34-11.78-.36-16.3,1.39-4.04-.22-6.07-.33-8.1-.43-9.63.05-18.93-2.12-29.22-.47-5.34.86-8.09-2.55-9.61-4.79,7.26-.05,14.52-.06,21.78,0,7.26.08,14.52.11,21.77.45,14.51.57,29,1.45,43.48,2.76l-1.16,1.89Z" fill="#010101" stroke-width="0"/><path d="M752.84,35.6c6.42,2.97,13.93,2.72,18.9,1.96,12.6-1.94,14.95,1.46,16.98,5.71-10.02-.8-20.07-1.37-30.03-2.47-2.49-.26-4.97-.61-7.46-.91-2.49-.3-4.97-.64-7.45-1.04-4.95-.8-9.88-1.83-14.78-3.18-4.74-1.31-8.01.71-11.88-.07-5.35-1.07-13.79-.67-14.4-4.76,3.7.28,7.39.7,11.09,1.05l18.28,1.13,20.75,2.59Z" fill="#010101" stroke-width="0"/><path d="M354.02,10.34c.26,1.82-1.49,4.12,6.94,3.41,5.25-.44,9.74.24,8.81,3.12-21.59,1.98-43.15,4.36-65.55,1.68l.12-1.57c.25-.41.5-.83.76-1.24.41.09.85.11,1.31.07,3.75.71,7.47,1.38,8.56-1.17.67.08,1.35.11,2.05.07l7.91-1.04c1.19,2.16,3.87,2.57,8.11,1.15,4.66-.31,9.49,2.25,13.73.07,1.4-.72-.71-1.92-3-2.53-.07-.33-.14-.65-.2-.97l2.56-2.15c4.64-2.09,5.06,1.06,7.9,1.09Z" fill="#010101" stroke-width="0"/><path d="M791.17,43.82c2.06-.21,4.42-.32,6.64-.47.28-.02.55-.04.82-.06l.4-.03c.13-.01.32-.02.22-.05-.13-.1-.15-.31-.3-.47-.18-.41-.31-.84-.1-1.16.06-.12.19-.24.35-.34.13-.06.29-.12.48-.16.37-.09.79-.14,1.2-.31.39-.17.89-.52,1.13-1.2.22-.64.24-1.83-1.02-2.95-.23-.19-.43-.39-.63-.59-.19-.18-.36-.37-.49-.56-.28-.38-.46-.79-.59-1.2-.28-.83-.39-1.69-.79-2.5.97.05,1.62,0,2.07-.11.23-.05.38-.13.54-.21.23-.06.38-.13.49-.23.46-.36.05-1,.38-1.39.9.23,1.77.47,2.67.97.44.23.88.45,1.29.74.41.3.81.62,1.2.96.4.32.72.71,1.05,1.1.31.39.65.79.89,1.21.49.84.95,1.72,1.19,2.61-.84-.62-1.19-.14-1.38.71-.05.21-.09.45-.12.71-.05.25-.11.52-.17.82-.06.28-.12.57-.18.88-.09.29-.19.59-.29.89-.38,1.19-1.09,2.28-1.8,2.95-.78.66-1.45.89-1.91.61.66-1.21.83-2.56.64-3.78-.13.29-.4.74-.42.76.19.99.08,2.03-.32,3.08-.52,1.32-1.24,2.09-1.58,2.72-.36.66-.43,1.09-.28,1.54.14.44.49.83.76,1.24.26.4.44.84.03,1.41-.67.34-1.45.72-2.15.9-.68.19-1.48.34-2.15.44-.67.22-1.34.4-2,.54-1.33.28-2.66.4-3.98.35-2.65-.1-5.28-.9-7.9-2.52,9.18-1.11,12.01-4.4,14.64-7.77.32-.28.53-.47.61-.73.07-.27.07-.5.03-.71-.1-.45-.35-.84-.45-1.24-.04-.19-.11-.42-.11-.64-.02-.23.08-.4.1-.62.01-.11.04-.22.08-.31.02-.05.04-.09.06-.13l.04-.06-.15-.08c-.4-.22-.84-.43-1.32-.65-3.67-1.67-7.77-2.58-12.89-1.57-6.03,1.19-11.69,1.66-12.63-2.6,6.7.1,13.42.83,20.14,1.41,1.68.14,3.36.28,5.03.39l1.26.08.63.04h.16s-.12-.01-.12-.01c-.08-.01-.16-.02-.24-.02-.16,0-.33.01-.49.05-.21,0-.46.03-.69.1-.41.14-1,.28-1.45.59-1,.5-1.71,1.42-2.13,2.06-.18.41-.38.65-.45,1.02-.15.29-.15.62-.23.92-.05.59-.09,1.29.19,2.05.2.84.8,1.69,1.55,2.47.15.15.34.26.48.38.14.13.29.24.45.33.16.09.32.17.49.23.15.06.25.13.38.18.12.05.25.09.38.12l.19.03h.1s-.08,0-.08,0c-.27-.03-.53-.07-.78-.11-1-.17-1.88-.41-2.67-.71-1.58-.6-2.81-1.43-4.02-2.32Z" fill="#010101" stroke-width="0"/><path d="M691.05,41.91c-7.39.55-4.97,2.4-.68,2.68,13.1.85,4.48,2.68,2.04,4.3-2.24-2.08-6.33-.63-9.47-.88.35-1.39-2.06-3.28-3.99-2.7-9.55,2.84-16.35-1.44-24.7-1-4.48-1.68-4.7-.22-5.02,1.16-4.48,1.78-5.62.3-6.97-1.06.39-.08,1.09-.14,1.14-.24,1.8-3.56,8.09-3.75,14.97-3.57,9.45.26,16.03-3.75,25.86-3.2.24,0,1.23-1.9,1.88-2.89l10.3-1.91,5.48-1.17.6,3.03c-11.68.43-12.36,3.72-11.42,7.45Z" fill="#161616" stroke-width="0"/><path d="M549.23,38.25c-5.42.22-6.22,2.54-9.64,3.67-2.18.72-4.38,1.48-2.95,2.7,1.09.93,3.42.71,5.57.66,2.57-.07,5.8-.47,7.55-.02,3.29.85,8.48,2.33,7.95,3.35-1.28,2.46-6.06.4-9.29.78-1.97.23-3.78.85-5.66,1.29-2.38,1.85-4.73.32-7.1.32-3.99-.64-8.28-1.58-7.24-3.49,4.07-7.42-8.18-6.54-19.21-6.41,1.24-1.6,7-1.36,7.31-3.34,4.55.27,8.92-.27,13.31-.91,4.39-.6,8.78-1.29,13.36-1.39,6.55-.14,5.22,1.46,6.05,2.82Z" fill="#161616" stroke-width="0"/><path d="M654.24,44.31c8.35-.45,15.15,3.84,24.7,1,1.93-.58,4.34,1.31,3.99,2.7-8.34.26-16.66.36-24.98.33l-12.49-.11c-4.16,0-8.33-.01-12.51-.05-8.37-.08-17.14.79-25.4,1.77-4.99.66-9.07.43-13.48.05-1.64-4.13,4.16-5.22,11.84-4.23,11.91,1.69,22.65,1.99,32.42-2.37,1.31.34,2.62.68,3.92,1.02,1.33,1.36,2.48,2.84,6.95,1.06l5.02-1.16Z" fill="#010101" stroke-width="0"/><path d="M752.84,35.6l-20.75-2.59c.02-.75.03-1.5.05-2.24,2.84.27,5.39.22,5.1-1.22-.28-1.41-3.16-1.72-5.75-2.02-.84-1.18-.78-2.34-.71-3.5,5.13,1.11,9.75,1.75,10.71-1.12,6.81-.49,13.73.22,20.65,1.86.19.9-.05,1.81.63,2.7,2.97,3.86,5.3,7.33-8.33,5.88-4.4-.42-1.81,1.33-1.59,2.24Z" fill="#202020" stroke-width="0"/><path d="M579.96,67.36l-10.61-1.46-.02-1.09.58-.42-.55.43c-4.51,1.07-6.96-6.87-12.69-.51-.91-.26-2.68-.58-2.59-.76,1.87-3.98-7.92-4.94-11.31-7.53.56-1.23,2.93-1.08,5.03-1.13,2.78,1.73,7.22,1.14,11.16,1.26,2.9-.67,4.72,3.77,6.26.73,1.64-3.23,6.45-1.12,9.15-1.87,4.61,2.18,6.72.95,8.29-1,2.75-.43,6.03-2.54,7.73.42l1.17,1.72c-3.23.74-4.84,2.52-9.36,2.42-3.09.72-1.91,1.96-2.19,3.03-14.07,1.86,1.86,3.84-.04,5.75Z" fill="#161616" stroke-width="0"/><path d="M311.84,2.9c-4.45,1.92-9.64,3.28-13.86,5.65-8.66,4.93-24.94,3.1-31.94-2.48,6.48-.05,13.69.16,9.11-4.04,12.44-1.01,24.88-1.96,36.7.88Z" fill="#010101" stroke-width="0"/><path d="M580,61.6c-14.07,1.86,1.86,3.84-.04,5.75,2.82.82,5.74,1.61,5.01,3.32,8,.37,16.44,3.44,23.72-.6.36-.21.47-.44.34-.7-10.49-3.43-11.33-8.16-10.72-13.09-2.26-.04-4.51-.08-6.76-.12-3.23.74-4.83,2.52-9.36,2.42.3,1.14.38,2.25-2.19,3.03ZM588.39,65.2c-1.69.52-3.3-.43-2.76-1.04,1.08-1.21-4.3-3.66,3.8-3.57,4.03.56,3.69,1.36.77,2.29-.55.8-.52,1.92-1.81,2.31Z" fill="#202020" stroke-width="0"/><path d="M396.41,74.41c2.43-.26,4.31-2.46,7.19-.86,6.37,3.55,6.7.1,8.62-1.56,1.8-.43,4.07-1.39,5.35-1.21,4.97.69,9.66,1.76,13.18-1.11,2.89-2.36-1.33-3.45-4.4-4.87-5.43-2.51-9.52-1.2-13.75.89-2.64,1.3-7.11,2.01-9.37,1.24-7.74-2.63-10.9.6-15.25,2.48,2.8,1.66,5.62,3.33,8.43,5ZM425.32,68.74c-.05.03-.94-.11-.99-.22-.12-.27.01-.56.04-.85l2.06.36c-.36.24-.68.49-1.12.71Z" fill="#202020" stroke-width="0"/><path d="M404.82,15.34c10.65.35,21.88-1.02,31.39,2.65,2.4.93,5.82-.15,8.23-.79,4.37-1.14,7.29-.61,9.61,1.18-9.08,3.42-19.92,1.9-30.11,1.08-6.6-.53-13.01.17-19.42.67-6.42.49-12.84.9-19.49-.4-1.93-.37-4.31-.35-5.17-1.38,2.73-2.44,7.33-3.09,12.6-1.54,6.36,1.87,9.39.47,12.36-1.48Z" fill="#010101" stroke-width="0"/><path d="M1174.63,90.07c-.26,1.93,2.01,3.24,6.68,3.97,4.82.75,5.62-.44,6.34-1.93.68-1.42,2.75-2.52,7.08-1.79,4.17.7,4.64,2.41,5.87,3.85,2,2.36-1.81,3.85-1.62,6.09.22,2.54-5.78.44-7.02-.54-3.37-2.67-7.93-4.56-13.27-3.42-5.28,1.13-7.4,3.61-3.04,6.83-1.82.51-3.6.67-5.21-.64,2.07-4.28-7.86-7.54-11.38-11.25,2.87-.63,5.52-1.36,5.89-2.94l9.68,1.77Z" fill="#161616" stroke-width="0"/><path d="M346.07,73.99c-6.68,3.22-13.48,4.97-20.72,1.84-4.34-2.87-16.74-.97-19.32-4.89.2-1.23.41-2.47.61-3.69,4.44-1.52,8.59-1.66,12.46-.47.65.6-.96,1.73,1.83,1.83.22-.68.44-1.36.66-2.04.74-.28,1.57-.42,2.47-.4,10.79-.33,9.15,5.77,19.1,5.88,2.26.26,2.89,1,2.91,1.94Z" fill="#202020" stroke-width="0"/><path d="M648.21,28.85l2.42-1.77c5.03-.76,11.82.11,11.51-3.95-.11-1.31,10.42-4.74,16.31,1.15,1.85,1.86,4.97,2.74,9.29,2.97-.22.26-.33.56-.43.86-.04,1.11-.07,2.21-.11,3.3-6.48.08-12.94.43-19.41.25-6.48-.18-12.98-.93-19.58-2.82Z" fill="#010101" stroke-width="0"/><path d="M524.86,22.6c-.9-2.96,4.83-3.49,9.48-3.83,10.04-.71,21.74-2.03,30.4.26,5.99,1.54,10.06,1.89,15.96,2.1,3.57.13,1.47,2.08,1.7,3.22-6.31.07-12.53.31-18.82.21-3.14-.04-6.3-.2-9.49-.45-3.2-.24-6.43-.62-9.71-1.21-5.68-1.03-12.97-.25-19.53-.29Z" fill="#010101" stroke-width="0"/><path d="M493.06,60.19c-1.63-.05-3.26-.1-4.89-.15-2.64-1.48-6.27-2.76-5.71-4.91,13.16-1.79,27.31.57,40.62-2.61,5.37-1.31,7.07,2.96,11.93,3.97-.24,1.76-5.36,3.06-6.54,2.62-8.22-3.06-14.86.93-22.22.69-4.85-6.33-8.73,1.14-13.19.38Z" fill="#010101" stroke-width="0"/><path d="M315.61,65.3c1.31-.24,2.62-.48,3.92-.72,2.81,1.99,2.71,1.93-1.28,3.36-1.75.63-4.06,1.63-4.34,2.34-.99,2.5,6.17.66,7.58,2.01-1.7,1.02-3.4,2.05-5.1,3.07l-8.38,2.11-8.9-.35-2.24-.08-1.12-.04-.56-.02h-.14s0-.01,0-.01h0s-.04-.18-.04-.18l-.1-.42-.35-1.44c-.05-.19-.11-.38-.18-.56-.05-.11-.06-.17-.06-.21-.01-.05-.03-.1-.06-.15-.02-.04-.09-.1-.06-.1,0-.02-.02-.01,0-.02.01-.02.03-.04.04-.06.02-.04.03-.09.03-.14,0-.02,0-.05,0-.07l.02-.14c.03-.18.05-.37.06-.56v-.28s0-.14,0-.14v-.21s.05-.83.05-.83v-.42s0-.21,0-.21c0-.04,0-.01,0-.02.12.08.56.15.88.21l1.08.18,2.21.33c-1.45.54-2.71,1-3.78,1.4-.13.05-.25.09-.37.14l-.07.03-.03.02h0s0,0,0,.02l-.02.2c-.06.31,0,.41-.09.54-.06.03.11.15.12.31,0,.05.07.22.11.34.03.09.02.07.02.07h0s0-.01,0-.02c.18-.12.44-.25.64-.37.42-.24.79-.47,1.11-.69,1.29-.86,1.82-1.52,1.54-2.04-.28-.52-1.38-.92-3.35-1.26-.25-.04-.51-.08-.78-.13-.01,0-.12,0-.19,0-.05,0-.06,0-.14.02l-.28.06-.07.02h-.04s-.21.09-.21.09c-.29.12-.58.27-.83.46l-.19.14c.19-.12-.9.55-1.28,1.95-.57,1.6.44,3.55,1.11,3.99.85.69.53.38.72.53.35.2.74.35,1.13.44l.41.08.17.02.23.03c.39.06.51.09.71.14.62.15,1.3.31,2.04.48,1.41.32,3.02.65,4.85,1.01-1.42,1.48-2.79,2.41-4.18,2.92-.71.26-1.37.41-2.21.48-.22.02-.43.03-.82.03h-.4s-.3-.02-.3-.02c-.28-.01-.56-.04-.84-.08l-.14-.02c-.27-.04-.53-.09-.8-.16-.54-.13-1.07-.31-1.58-.54-.25-.11-.5-.24-.74-.37l-.35-.21c.18.11-.99-.56-1.89-1.58-.96-1.02-2.18-2.99-2.34-5.44-.2-2.45.73-4.6,1.56-5.76.73-1.12,1.89-2.02,1.69-1.85l.25-.2c.68-.53,1.47-.97,2.27-1.28l.33-.12.09-.03.18-.06.35-.1.25-.06.26-.06c.23-.05.16-.03.23-.04h.12s.25-.03.25-.03l.49-.02c2.62-.02,5.27.97,7.87,1.76,2.37-.21,4.39.97,6.57,1.49,2.19.51,4.54.28,7.68-2.89Z" fill="#202020" stroke-width="0"/><path d="M509.2,41.08c11.03-.13,23.28-1.01,19.21,6.41-1.04,1.91,3.24,2.85,7.24,3.49-.5,1.86-2.19,2.12-4.16,2-1.97-.09-4.24-.57-5.88-.23-2.62-3.24-4.45-6.97-16.85-3.25-2.05.61-5.42.65-6.38-.62-1.01-1.35,1.56-1.91,4.28-2.3l1.2.13-1.07-.2,2.41-5.45Z" fill="#202020" stroke-width="0"/><path d="M608.7,70.07c.36-.21.47-.44.34-.7,1.17-1.67,9.33-.55,7.84-3.3,2.15-2.88,5.22-2.35,8.33-.21,2.73,1.88,5.07,4.01,9.25.57,3.15.71,5.42-2.12,8.33-.42,3.69,2.15.57,3.99-2.59,5.7-10.68.18-22.01,3.2-31.49-1.64Z" fill="#010101" stroke-width="0"/><path d="M767.04,73.73c3.69-2.27,12.59-1.52,15.3-5.38,1.28-1.81,12.4,2.2,18.44,4.1,1,.32,1.63.84,2.43,1.27l-.09,3.11c-9.54,1.92-18.15-2.49-27.54-1.67l-6.87-.75c-.9-.09-1.46-.32-1.68-.69Z" fill="#010101" stroke-width="0"/><path d="M356.71,1.72c-3.68,3.16-27.51,7.55-35.16,6.26-7.56-1.26-2.76-4.06-4.27-6.07,4.81.47,9.65,1.8,14.22-.35.99-.46,4.35-.85,4.56-.72,6.13,3.79,13.89.27,20.65.89Z" fill="#010101" stroke-width="0"/><path d="M1138.47,100.73c-3.79.96-10.47-4.13-12.78-.1-3.93,1.45-7.51-.07-11.12-1.27-5.86-3.65-15.83-3.02-22.93-5.38,1.64-1.63,1.68-3.81,9.27-1.2,4.59,1.6,11.45,1.83,17.27,2.77,1.03.57,2.06,1.15,3.09,1.72l1.09-.52-3.99-1.26c4.92-.18-9.26-8.55,8.14-3.38.44,1.73-2.14,3.75,4.83,4.88,1.26,1.59,7.72,1.61,7.12,3.75Z" fill="#161616" stroke-width="0"/><path d="M519.68,19.39c.13.54-.82,1.23,1.44,1.44-15.98-.09-32.88,3.38-46.49-3.83.14-.46.27-.92.41-1.39l10.44.32c5.69.54,11.38,1.08,17.08,1.61,5.7.57,11.4,1.22,17.12,1.83Z" fill="#010101" stroke-width="0"/><path d="M1091.64,93.98c7.1,2.37,17.06,1.73,22.93,5.38-1.2,3.33-6.67,0-9.67,0-11.46-.03-23.07-2.12-34.43-4.19,2.91-5.75,13.83-1.16,21.17-1.19Z" fill="#010101" stroke-width="0"/><path d="M903.24,79.32c4.11.12,8.46.66,12.5.73,4.04.08,7.77-.36,10.67-2.3,2.2-1.48,5.18-.35,5.55,1.36.27,1.24-.47,2.53,2.95,3.47.87,3.48-5.94,2-9.59,1.9-4.11-.11-8.25-.36-12.39-.61-4.14-.23-8.3-.47-12.44-.71.76-1.31-1.22-3.08,2.75-3.85Z" fill="#010101" stroke-width="0"/><path d="M861.92,65.02c-5.8.68-11.82,1.41-15.77-1.77-2.56-2.07-4.2-1-6.63-.31-8.15,2.33-16.05,2.08-23.37-1.63,7.59-2.61,16.87-1.6,25.92-.8,6.67.59,13.27,1.41,19.9,2.13l-.06,2.38Z" fill="#010101" stroke-width="0"/><path d="M423.94,63.81c-2.06-1.97-8.02-4.5,5.27-4.23,6.91.21,9.87-2.1,13.19-4.31,1.66-1.1.28-3.53,5.81-3.12,4.47.33,3.63,2.26,2.95,3.96-.64,1.62-.92,3.23-1.36,4.85-8.62.95-17.26,1.81-25.87,2.85Z" fill="#202020" stroke-width="0"/><path d="M679.85,71.33c-.8-3.22-.85-6.1,10.45-3.82l7.89,2.3,5.01.24c2.1,1.17,5.08,1.02,7.95,1.07l2.92,2.5c.18,2.2-3.31,1.44-6.08,1.11-9.39-1.13-18.76-2.27-28.13-3.4Z" fill="#010101" stroke-width="0"/><path d="M316.4,75.37c1.7-1.02,3.4-2.05,5.1-3.07,3.69-.42,7.6-.23,11.26-.62,3.67-.39,7.11-1.31,9.96-3.78,1.46-1.29,6.38-.39,6.13,0-1.08,1.7,9.19.96,2.25,3.65-5.8.36-11.65,2.1-17.48,3.26-2.91.6-5.82,1.05-8.69,1.21-2.86.19-5.71.04-8.53-.65Z" fill="#010101" stroke-width="0"/><path d="M682.66,60.82c-2.86-1.01-7.11-3.08-8.34-2.83-4.91.99-.31,2.13,1.34,3.27,1.12.77-.38,1.34-2.36,1.3-2.27-.04-4.7-.49-4.72-1.51-.04-1.56.7-3.12,1.11-4.67,9.6-2.81,20.45-1.82,31.2-1.05l.26,2.73c-.13.29-.17.58-.12.88l-2.87.02c-6.88-1.39-13.46-2.4-15.5,1.87Z" fill="#010101" stroke-width="0"/><path d="M343.16,72.05c-9.95-.11-8.31-6.21-19.1-5.88,5.24-3.19,10.63-5.99,18.24-2.4.88.68,1.52,1.95,2.66,1.94,17.5-.07,4.87,2.9.96,4.98-.48-.71-.11-1.76-3.21-1.41.26.57.51,1.14.77,1.72-.13.35-.24.69-.32,1.04Z" fill="#010101" stroke-width="0"/><path d="M479.82,41.97c-2.12,2.28-6.38,5.05-11.15,3.39-9.14-3.25-24.43,4.39-30.88-1.38,7.09-.93,14.14-1.58,21.14-1.96,7.01-.3,13.97-.31,20.89-.06Z" fill="#010101" stroke-width="0"/><path d="M696.39,32.6l-10.3,1.91c-1.79.27-3.59.62-5.38.92.03-2.64-4.43-2.38-8.77-2.2-10.14,2.69-19.63,2.24-28.67-.7.84-1.17,3.59-2.34,5.46-2,7.72,1.31,15.88.86,24,.53,4.06-.16,8.11-.29,12.07-.16,3.97.21,7.86.71,11.59,1.7Z" fill="#010101" stroke-width="0"/><path d="M1093.35,79.23c-.87,3.43-2.89,5.8-12.63,1.72-3.63-1.52-7.93-1.31-12.17-1.27-4.25.05-8.45,0-11.89-2.12,11.35-3.76,24.3.31,36.7,1.67Z" fill="#010101" stroke-width="0"/><path d="M585.8,8.8c-3.74,3.51-10.81,5.61-18.53,7.43,1.7-3.61-2.08-6.81-7.15-9.9,5.43-1.6,10.14.27,15.03,1.26,2.49,3.05,6.89,1.33,10.66,1.22Z" fill="#010101" stroke-width="0"/><path d="M978.69,87.05c9.47-3.5,28.52-1.64,39.52,3.97-11.44.97-22.63-1.69-33.93-2.69-.11-2.15-2.94-1.62-5.59-1.28Z" fill="#010101" stroke-width="0"/><path d="M448.33,67.66c3.07.03,5.19.48,5.16,1.91l-3.34.85-.71,1.2,2.48-.48,2.02-1.41c3.14-.09,4.66.57,4.95,1.79-9.58.77-17.78,4.6-28.46,2.89.79-3.94,9.72-4.65,15.59-6.58.77-.06,1.54-.12,2.31-.18Z" fill="#010101" stroke-width="0"/><path d="M607.03,36.04c-12.1.73-24.1,1.32-34.55-1.51,3.98-2.07,7.77-3.06,13.92-1.41,3.9,1.04,8.21.88,12.62.53,2.2-.18,4.43-.4,6.64-.55,2.21-.14,4.4-.15,6.54.01l-.4,2.41c-1.55.17-3.16.34-4.75.51Z" fill="#010101" stroke-width="0"/><path d="M874.62,71.04c10.74,1.21,16.28,5.9,12.47,10.55l-10.52-.55c1.75-2.28-5.95-3.92-4.28-6.2,3.13-.92,1.93-2.51,2.33-3.81Z" fill="#202020" stroke-width="0"/><path d="M298.59,71.52l-2.21-.33-1.08-.18c-.33-.06-.77-.13-.88-.21,0,0,0-.02,0,.02v.21s0,.42,0,.42l-.03.83v.21s-.01.14-.01.14v.28c-.02.19-.04.37-.07.56l-.02.14s0,.05,0,.07c0,.05-.01.1-.03.14-.01.02-.02.04-.04.06,0,0,.01,0,0,.02-.03,0,.05.06.06.1.03.05.05.09.06.15,0,.04.02.11.06.21.07.18.13.37.18.56l.35,1.44.1.42.04.18h0s0,.01,0,.01h.14s.56.03.56.03l1.12.04,2.24.08,8.9.35c-2.06.86-4.12,1.69-6.18,2.41-1.03.36-2.06.7-3.1,1-.52.15-1.03.29-1.55.43l-.78.19-.19.05-.1.02h-.05s-.02.02-.02.02c-.33-1.57.74,3.52-.75-3.53l-.03-.16-.06-.32c-.08-.42-.18-.84-.28-1.26l-.16-.63-.08-.3-.04-.21c-.06-.28-.15-.56-.25-.84-.07-.16-.05-.2-.08-.29-.01-.06-.11-.16-.1-.17-.04,0,.04-.08.05-.15.03-.09-.01-.11.02-.27.04-.27.07-.55.07-.83,0-.11,0-.33.02-.54l.02-.62c.01-.41.01-.83,0-1.24-.03-6.21-.06-3.81.06-4.3l.29-.02.71-.04c.5-.03,1.02-.04,1.55-.05,1.05-.01,2.12.02,3.19.1,2.14.18,4.28.59,6.43,1.3-.2,1.23-.41,2.46-.61,3.69l-7.44.57Z" fill="#010101" stroke-width="0"/><path d="M598.32,56.28c-2.26-.04-4.51-.08-6.76-.12-.39-.57-.78-1.15-1.17-1.72,9.86-.68,19.91-2.37,29.02,1.07-2.96,1.82-9.01,2.58-10.14,5.02-1.89-.43-3.49-.8-5.09-1.17-.41-1.51-.65-3.08-5.85-3.07Z" fill="#010101" stroke-width="0"/><path d="M861.92,65.02l.06-2.38,13.09.81c2.53,2.69,2.18,5.21-.45,7.58-6.39-.18-5,1.92-5.23,3.55-1.06.78-2.55,1.47-4.99.9-2.86-.66-1.08-1.57-.52-2.28,2.15-2.71,6.11-5.39-1.97-8.18Z" fill="#202020" stroke-width="0"/><path d="M487.77,69.95c.07.74.13,1.48.2,2.22-8.93.38-18.62,3.83-26.32-.68,1.27-2.04-.81-6.25,9.22-2.17,4.35,1.77,11.75-1.44,16.9.63Z" fill="#010101" stroke-width="0"/><path d="M702.48,34.46l-.6-3.03c5.14-.98,10.02-.93,14.79-.47,2.39.23,4.75.56,7.1.91,2.35.39,4.7.83,7.06,1.21l-5,2c-5.28.83-5.4,2.93-6.18,4.8-.71.07-1.42.11-2.16.11.06-4.13-1.46-7.56-15.01-5.54Z" fill="#010101" stroke-width="0"/><path d="M798.48,31.78c-6.88-.98-13.77-2.11-20.66-2.91-4.47-.52-7.8-1.09-7.97-3.34,9.58-1.5,19.47,2.56,29.17,3.04-.14,1.06-.27,2.11-.54,3.21Z" fill="#010101" stroke-width="0"/><path d="M725.83,35.08l5-2c7.58-1.08,15.54-3.4,21.51,1.58-6.84,1.15-13.96,1.76-21.54,1.94-3.59.09-4.82-.13-4.97-1.53Z" fill="#161616" stroke-width="0"/><path d="M653.52,70.88c.3-.32.39-.72.91-.96,3.79-1.73-10.57-4.62.33-5.07,7.87-.33,12.85,3.11,12.09,6.8-4.61.41-9.53,2.14-13.33-.76Z" fill="#161616" stroke-width="0"/><path d="M404.82,15.34c-2.97,1.95-6,3.34-12.36,1.48-5.28-1.55-9.88-.9-12.6,1.54-1.85-.24-4.23-.11-4.91-1.19,1.53-1.19,3.07-2.38,4.61-3.58,8.21-.89,16.3.3,24.45.41l.8,1.34Z" fill="#161616" stroke-width="0"/><path d="M275.14,2.02c4.59,4.21-2.62,3.99-9.11,4.04-4.78.55-7.8-.32-9.84-1.99.03-.94.06-1.89.09-2.83,6.18.64,12.34,1.34,18.86.77Z" fill="#161616" stroke-width="0"/><path d="M616.75,24.43c9.41,1.56,20.26.49,28.42,4.29-9.7,1.96-19-1.57-28.52-2.09l.1-2.2Z" fill="#010101" stroke-width="0"/><path d="M384.37,68.1c.21-4.08,3.28-4.85,7.07-4.76,3.8.08,8.32,1.05,11.49.45-.24,1.61,1.86,3.65-6.04,3.44-3.94-.08-8.34.56-12.53.87Z" fill="#010101" stroke-width="0"/><path d="M664.41,55.97c-.97,1.62-.03,4.16-5.97,3.96-8.01-.21-3.14-4.04-7.75-5.43,6.46-2.92,9.16.91,13.72,1.47Z" fill="#010101" stroke-width="0"/><path d="M953.58,70.74c3.84,1.04,7.68,2.07,11.53,3.11-7.4-.17-8.03,2.18-9.25,4.36-.71,1.26-2.52,2.17-6.03,1.91-1.31-.1-3.32-.76-3.7-1.26-1.06-1.42,1.82-1.53,4.11-1.9,8.26-1.33-6.21-4.7,1-6.18.75-.08,1.53-.1,2.34-.04Z" fill="#161616" stroke-width="0"/><path d="M261.09,16.08c5.21,1.28,12.23-6.22,16.34.45q-2.19,3.98-16.34-.45Z" fill="#010101" stroke-width="0"/><path d="M737.99,62.42c6.94-.61,6.59-3.23,8.23-5.31,5.42.07,11.45-1.32,15.74,1.51l-.22,1.26c-3.91.4-10.7-.87-11.41,1.24-1.58,4.7-7.03,2.48-12.35,1.3Z" fill="#010101" stroke-width="0"/><path d="M722.09,55.84c3.25,3.56-4.76,4.09-8.6,5.74-1.35-.75-2.7-1.51-4.05-2.27-1.04-1.5-2.08-3-3.12-4.51,5.44-.49,10.12,2.38,15.77,1.03Z" fill="#010101" stroke-width="0"/><path d="M480.79,54.99l.26,3.08c-4.81,1.3-9.62,2.57-15.12,1.94-.09-1.66-2.16-3.69,5.17-4.05,5.53-.27,7.96-1.47,7.58-3.68,2.48.56,1.82,1.73,2.11,2.71Z" fill="#010101" stroke-width="0"/><path d="M560.12,6.32c5.07,3.1,8.85,6.29,7.15,9.9-5.24-2.69-13.01-4.78-13.96-8.5.38-.63.77-1.25,1.16-1.89,1.88.13,3.77.32,5.65.48Z" fill="#161616" stroke-width="0"/><path d="M903.24,79.32c-3.97.77-1.99,2.54-2.75,3.85l-7.87-.08c-1-3.73-.96-7.15,10.95-7.11-.11,1.11-.22,2.22-.33,3.33Z" fill="#161616" stroke-width="0"/><path d="M611.78,35.54l.4-2.41c5.11-.25,9.53.33,13.3,1.64-3.07,7.46-8.44,3.73-13.7.77Z" fill="#161616" stroke-width="0"/><path d="M420.19,1.9c.02.72.51,1.5-.01,2.14-1.48,1.8,6.01,5.27-2.14,5.26-7.21,0-.94-3.1-1.95-4.74-.29-.47-2.69-.76-4.12-1.14,1.78-1.32,3.39-2.78,8.22-1.52Z" fill="#161616" stroke-width="0"/><path d="M585.8,8.8c-3.76.12-8.17,1.84-10.66-1.22l5.8-.27c2.17.23,4.04.17,5.1-.67l10.63,1.6-2.3,1.04-8.57-.48Z" fill="#161616" stroke-width="0"/><path d="M96.3,19.26c-.03-.35-.23-.72-.05-1.06.87-1.67-3.13-4.3,3.3-4.66,2.2-.12,6.39,3.04,2.27,5.36l-5.52.37Z" fill="#010101" stroke-width="0"/><path d="M804.42,44.98c.46.27,1.13.04,1.91-.61.71-.66,1.42-1.76,1.8-2.95.1-.3.19-.6.29-.89.06-.31.12-.6.18-.88.06-.29.12-.57.17-.82.04-.26.07-.5.12-.71.19-.85.54-1.33,1.38-.71.91,2.76.83,5.58-.24,8.29-.26.67-.66,1.35-1.04,1.99-.45.64-.96,1.26-1.52,1.82-.62.53-1.26,1.08-1.97,1.47-.72.37-1.49.78-2.24.96.4-.57.23-1.01-.03-1.41-.27-.41-.61-.8-.75-1.24-.14-.45-.06-.88.32-1.55.18-.34.47-.63.74-1.12.14-.22.29-.46.46-.74.14-.28.27-.6.42-.92Z" fill="#161616" stroke-width="0"/><polygon points="1048.51 77.79 1043.35 76.19 1052.26 74.44 1053.88 77.18 1048.51 77.79" fill="#161616" stroke-width="0"/><path d="M1164.95,88.3c-.37,1.58-3.01,2.31-5.89,2.94-11.46-2.33,2.85-2.45-.14-4.06.54-.25,1.22-.26,2.05-.05l3.46.52c.71.19.88.4.52.64Z" fill="#202020" stroke-width="0"/><path d="M763.37,72.5l5.19,1.32c-2.41,2.3-8.75,1.23-12.75,2.22-.07-.71-.14-1.43-.21-2.13.1-.73.2-1.45.3-2.18,1.42-.08,2.5-.02,3.57.04.35,1.23,2.15.96,3.9.74Z" fill="#010101" stroke-width="0"/><path d="M516.51,37.74c-.31,1.99-6.07,1.74-7.67,3.2l-4.25-.61,3.26-1.69c2.73-.85,5.6-1.2,8.65-.9Z" fill="#202020" stroke-width="0"/><path d="M706.32,54.8c1.04,1.5,2.08,3,3.12,4.51l-8.28-1.26-.26-2.73,5.43-.51Z" fill="#161616" stroke-width="0"/><path d="M582.66,54.01c-1.57,1.95-3.67,3.17-8.29,1,2.21-1.07,3.11-3.93,8.29-1Z" fill="#010101" stroke-width="0"/><path d="M690.33,28.57l8.13,1.9c.09,2.94-4.39,1.83-8.4,1.14l.27-3.03Z" fill="#010101" stroke-width="0"/><path d="M558.96,56.15c-3.94-.11-8.37.47-11.16-1.26,5.66-2.29,8.7-.92,11.16,1.26Z" fill="#202020" stroke-width="0"/><path d="M68.58,22.23c2.55-1.5,5.55-1.72,8.97-.75-2.87.57-4.45,4.78-8.97.75Z" fill="#010101" stroke-width="0"/><path d="M594.37,9.28l2.3-1.04,5.26.3c-.1.37-.2.74-.29,1.11-2.45,1.08-4.88,1.12-7.27-.37Z" fill="#010101" stroke-width="0"/><path d="M798.34,61.05c-.07.2.04.39.33.58-.37-.16-.76-.27-1.21-.31-.2-.77-.42-1.58-.63-2.39l1.51,2.13Z" fill="#202020" stroke-width="0"/><path d="M586.04,6.64c-1.06.85-2.93.91-5.1.67.05-1.84,1.79-2.02,5.1-.67Z" fill="#010101" stroke-width="0"/><path d="M885.35,63.91c-.34.77.07,2.02-2.84,1.66-2.12-.26-1.67-1.07-.07-1.53l2.91-.13Z" fill="#202020" stroke-width="0"/><path d="M755.61,73.9c.07.7.14,1.42.21,2.13-2.69-.44-4.53-1.2-5.35-2.35l5.15.21Z" fill="#161616" stroke-width="0"/><path d="M768.72,74.42l6.87.75c-2.95,1.26-5.26,1.06-6.87-.75Z" fill="#161616" stroke-width="0"/><path d="M798.61,31.74c.14-1.06.27-2.12.41-3.17.88.02,1.54.13,1.97.32.11.05.2.1.28.16.04.03.08.06.11.09.07.05.14.09.2.13.25.18.38.37.38.56-.33.4.07,1.03-.35,1.39-.1.09-.25.17-.47.22-.21.06-.31.15-.55.2-.43.11-1.06.15-1.99.09Z" fill="#161616" stroke-width="0"/><path d="M321.59,66.57c-.22.68-.44,1.36-.66,2.04-2.79-.11-1.18-1.23-1.83-1.83.82-.27,1.65-.34,2.49-.2Z" fill="#010101" stroke-width="0"/><path d="M690.33,28.57l-.27,3.03-2.85-.18c.04-1.09.07-2.19.11-3.3l3.02.45Z" fill="#161616" stroke-width="0"/><path d="M978.69,87.05c2.64-.34,5.47-.87,5.58,1.28-2.4.11-4.78.2-5.58-1.28Z" fill="#202020" stroke-width="0"/><polygon points="1164.42 87.66 1160.96 87.14 1163.22 86.15 1164.42 87.66" fill="#161616" stroke-width="0"/><polygon points="370.11 77.32 373.5 77.2 372.24 78.03 370.11 77.32" fill="#202020" stroke-width="0"/><path d="M404.01,14c-8.15-.11-16.25-1.3-24.45-.41-2.84-.09-4.09-.79-4.31-1.87-.11-1.11-.22-2.21-.33-3.31,4.52-.18,6.02-1.14,4.43-2.91-.75-.83-1.8-1.91,1.2-2.08,1.75-.1,5.55.7,5.5,1.02-.6,4.7,11.38,4.86,15.99,7.62.94.57,1.33,1.29,1.98,1.94Z" fill="#010101" stroke-width="0"/><path d="M233.36,14.26c-5.54,1.17-11.08,2.54-16.53.13,9.33-.45,1.64-4.76,8.19-5.83l10.49-2.13c-1.31,2.59-6.86,5.03-2.15,7.82Z" fill="#161616" stroke-width="0"/><path d="M514.37,8.33c4.51-1.75,10.29-1.73,16.3-1.39-.24,1.23.54,2.79-.96,3.6-2,1.08,5.8,3.27-1.36,3.12-4.96-.1-3.91-1.88-3.31-3.32.27-.66.4-2.97-2.92-.88-6.07,3.82-4.61-1.73-7.74-1.14Z" fill="#161616" stroke-width="0"/><path d="M324.91,13.67l-7.91,1.04c-1.02-1.24-7.79-2.32-1.83-3.75,6.31-1.51,8.45.6,9.74,2.7Z" fill="#161616" stroke-width="0"/><path d="M343.75,12.37c2.3.61,4.41,1.81,3,2.53-4.23,2.17-9.07-.38-13.73-.07.41-3.13,6.51-2.11,10.73-2.45Z" fill="#161616" stroke-width="0"/><path d="M485.48,15.94l-10.44-.32c.63-1.94,3.95-2.77,8.12-2.43,3.22.26,2.11,1.75,2.32,2.76Z" fill="#161616" stroke-width="0"/><path d="M601.72,12.8c.72.15,1.47.25,2.24.3.06.68.12,1.36.17,2.04-3.17-.35-7.1-.09-8.41-2.03l5.99-.3Z" fill="#010101" stroke-width="0"/><path d="M314.96,14.63c-1.09,2.55-4.81,1.88-8.56,1.17.08-.74.17-1.49.26-2.25,2.8.36,5.55.72,8.3,1.08Z" fill="#161616" stroke-width="0"/><path d="M365.62,3.85c.57-.19,1.11-.38,1.65-.56l1.49,1.04c-.68.11-1.48.36-2.01.28-.52-.07-.76-.49-1.13-.76Z" fill="#010101" stroke-width="0"/><path d="M506.27,7.89l6.1.32c-.8.55-1.4,1.54-2.43,1.58-2.96.12-2.89-1.1-3.67-1.9Z" fill="#161616" stroke-width="0"/><path d="M346.11,9.25l-2.56,2.15c-3.97-1.68-.86-1.94,2.56-2.15Z" fill="#161616" stroke-width="0"/><path d="M306.65,13.55c-1.42-.12-3.5.15-3.48-.86,0-.22,1.02-.63,1.54-.62,2.41.03,1.73.87,1.94,1.48Z" fill="#161616" stroke-width="0"/><path d="M374.92,8.41c.11,1.1.22,2.2.33,3.31-3.39-1.07-3.66-2.17-.33-3.31Z" fill="#161616" stroke-width="0"/><path d="M446.74,7.61c-.06.46-.48.47-.85.5.06-.45.48-.46.85-.5Z" fill="#010101" stroke-width="0"/><path d="M609.49,15.44c.01.37.03.74.04,1.12-1.78-.5-3.56-.99-5.34-1.45,1.73.11,3.52.22,5.3.33Z" fill="#010101" stroke-width="0"/><path d="M354.09,10.37l.6-.43c-.22.13-.44.26-.6.43Z" fill="#010101" stroke-width="0"/><path d="M305.08,15.73c-.25.41-.51.83-.76,1.24-2.28-.67-1.82-1.06.76-1.24Z" fill="#161616" stroke-width="0"/><path d="M908.5,75.22c-3.08-1.92-7.96-3.71-4.14-6.11,1.63-1.03,3.58-1.93,6.87-1.87,4.89.08,5.33,1.69,5.89,3.16-2.65,1.53-4.01,3.21-1.99,5.31.93.98.63,1.83-2.25,1.79-3.46-.05-3.93-1.21-4.39-2.28Z" fill="#161616" stroke-width="0"/><path d="M1131.35,96.98c-6.97-1.13-4.39-3.14-4.83-4.88,2.62.11,6.18,1.32,6.79-.75.3-1.04,2.97-1.99,5.24-1.35,2.32.65,4.35,2.19,5.07,3.36,1.18,1.94-3.27.57-4.75.9-2.9.66-5.05,1.79-7.51,2.72Z" fill="#010101" stroke-width="0"/><path d="M997.43,76.48c5.21-4.75,13.93-2.14,22.21-.3-6.38,2.23-13.44,3.11-22.21.3Z" fill="#161616" stroke-width="0"/><path d="M990.95,75.6c.89.16,1.79.33,2.69.49.43.33.68.76,1.32.98,4.94,1.72,8.17,3.46,2.78,5.38-1.41.5-5.2.85-4.47-.16,1.71-2.38-14.79-4.72-2.32-6.69Z" fill="#161616" stroke-width="0"/><path d="M933.01,69.42c2.54,0,5.09.01,7.63.02-.02,1.49,6.16,3.99-.62,4.24-5.01.19-8.37-1.9-7.01-4.27Z" fill="#161616" stroke-width="0"/><path d="M968.72,74.04l8.66-2.19c-.3,1.25,4.14,2.93.19,3.74-3.14.64-6.42-.21-8.84-1.54Z" fill="#161616" stroke-width="0"/><path d="M1115.84,89.73c-1.58.26-2.55.65-3.44.55-.96-.11-1.86-.65-2.78-1.01.84-.24,1.64-.69,2.54-.65.93.05,1.97.56,3.68,1.12Z" fill="#161616" stroke-width="0"/><path d="M983.07,72.23l7.24,1.38c.33.18.67.35,1.02.52-.14.35-.28.7-.42,1.04-3.24-.67-8.09-.58-7.84-2.94Z" fill="#161616" stroke-width="0"/><path d="M926.29,68.92c2.22-.76,4.46-1.6,6.53.45l-6.53-.45Z" fill="#161616" stroke-width="0"/><path d="M1100.56,82.76c-.77.17-1.13-.02-1.48-.21.28-.07.56-.14,1.48.21Z" fill="#010101" stroke-width="0"/><path d="M380.11,53.28c2.94-.17,6.28-.86,8.18.33,1.69,3.18,10.25-.28,14,1.42,1.41.63,5.54-3.13,7.76-.97,1.37,1.33-2.87,3.09-5.45,4.53-2.62,1.47-4.76,1.93-8.7,1.16-4.96-.96-10.66-1.33-14.53,2.6-2.32,2.36-7.14,1.39-9.95.94-4.92-.75-1.18-2.11,1.48-3.36,4.2-1.99,8.36-4.05,7.21-6.65Z" fill="#202020" stroke-width="0"/><path d="M480.79,54.99c-.29-.99.37-2.16-2.11-2.71-.71-1.23-7.18-.95-4.16-3.08,1.06-.75,3.56-1.7,5.25-1.76,5.66-.21,2.08,2.1,3.4,3.13.74.57,1.31,1.22,2.38,1.65,2.1.84,8.05.91,5.94,2.45-2.43,1.77-6.86-.31-10.71.33Z" fill="#202020" stroke-width="0"/><path d="M461.32,52.39c-.54.24-1.06.47-1.57.69l-1.61-.83c.67-.17,1.41-.49,1.98-.48.5.02.79.39,1.2.62Z" fill="#202020" stroke-width="0"/><path d="M330.47,60.95l-2.61.38c.85-.1,1.75-.23,2.61-.38Z" fill="#010101" stroke-width="0"/><path d="M135.32,6.59c-.51.95-.65,2.12-4.21,1.22.46-.98,2.14-1.21,4.21-1.22Z" fill="#161616" stroke-width="0"/><path d="M372.66,73.76l-5.35.56c-.18-1.34.89-3.45-.81-3.85-2.99-.72-5.65-1.14-4.82-2.88.41-.85,2.04-.65,2.71-.31,2.44,1.24,10.16.15,8.34,3.31-.6,1.04-.08,2.12-.07,3.17Z" fill="#202020" stroke-width="0"/><path d="M387.97,69.41c-1.57,1.08-1.56,2.62-5.31,3.03-.52.06-1.9-.64-1.78-1,.6-1.8,4.26-1.68,7.1-2.03Z" fill="#202020" stroke-width="0"/><path d="M448.33,67.66c-.77.06-1.54.12-2.31.18-.02-.82-.54-1.73,2.49-1.96l-.18,1.77Z" fill="#202020" stroke-width="0"/><path d="M343.48,71.01c-.26-.58-.52-1.15-.77-1.72,3.1-.35,2.73.7,3.21,1.41l-2.44.31Z" fill="#202020" stroke-width="0"/><path d="M356.58,73.1l.81-1.5c2.6.59.02,1.01-.81,1.5Z" fill="#202020" stroke-width="0"/><path d="M225.02,8.57c-6.55,1.08,1.14,5.39-8.19,5.83-3.39.09-5.8-.64-7.6-1.64-3.79-2.1-8.45-4.18-1.48-6.88,10.96-4.24,11.54,1.78,17.28,2.69Z" fill="#202020" stroke-width="0"/><path d="M180.68,6.05c3.8.25,9.83-2.26,9.57,1.27-.09,1.21-1.57,3.33-5.89,2.78-4.18-.54-10.32-1.95-10.58-3.23-.52-2.57,4.97-.11,6.9-.81Z" fill="#202020" stroke-width="0"/><path d="M184.99,14.4c-2.95,1.36-4.75,2.9-6.91,3.02-2.72.16-7.57.23-7.8-1.79-.13-1.12,1.63-2.27,4.52-2.26,3.12.02,6.16.59,10.19,1.03Z" fill="#202020" stroke-width="0"/><path d="M148.59,7.06c-.34.78-.33,1.81-3.09,1.66-.86-.05-1.36-.96-2.02-1.47l5.11-.18Z" fill="#161616" stroke-width="0"/><path d="M195.36,9.59c-.86-.36-.33-.42.19-.47l-.19.47Z" fill="#202020" stroke-width="0"/><path d="M153.6,5.86l-1.2.02-1.2.03c.79-.58,1.59-.65,2.4-.05Z" fill="#161616" stroke-width="0"/><path d="M809.04,64.23c-.64,1.76-3.4,2.26-7.2,1.55-4.84-.9-2.84-2.68-3.24-4.14,4.76-.04,4.78,3.38,10.44,2.59Z" fill="#202020" stroke-width="0"/><path d="M869.39,74.58c.23-1.63-1.15-3.72,5.32-3.57-.48,1.33.72,2.92-2.41,3.84-.97-.09-1.94-.18-2.91-.26Z" fill="#010101" stroke-width="0"/><path d="M809.09,64.25l.6-.42c-.22.13-.43.26-.6.42Z" fill="#202020" stroke-width="0"/><path d="M607.03,36.04l4.8-.53c-.82.83,1.69,2.27-2.16,2.45-2.19.1-2.77-1.01-2.64-1.91Z" fill="#161616" stroke-width="0"/><path d="M671.94,33.23c4.34-.18,8.8-.44,8.77,2.2-3.23-.53-6.84-.82-8.77-2.2Z" fill="#161616" stroke-width="0"/><path d="M737.99,62.42c5.32,1.18,10.77,3.4,12.35-1.3.71-2.11,7.5-.84,11.41-1.24-2.23,2.37-4.01,4.87-6.77,7.13-5.88,4.85-16.31,5-24.7.48-1.04-.56-1.55-1.42-2.85-1.75-4.82-1.22-5.04-4.9-.15-6.14q2.04-.51,3.11,1.9c.5,1.14.31,2.6,3.97,2.78,1.12.06,2.42-1.2,3.63-1.86Z" fill="#161616" stroke-width="0"/><path d="M698.16,58.94l2.87-.02c4.95,4-3,7.19-2.85,10.88l-7.89-2.3c-.67-3.42,9.88-4.92,7.86-8.56Z" fill="#161616" stroke-width="0"/><path d="M711.14,71.11c-2.88-.05-5.85.1-7.95-1.07.09-.17.03-.41.28-.49,3.58-1.09,3.03-4.76,7.36-3.99,6.39,1.17-.85,3.59.31,5.55Z" fill="#161616" stroke-width="0"/><path d="M725.29,68.23c.75.38,1.63.66,1.56.83-.25.59-.85,1.14-1.31,1.71-.34-.32-.95-.64-.95-.95,0-.49.4-.96.7-1.59Z" fill="#161616" stroke-width="0"/><path d="M763.37,72.5c-1.76.22-3.55.48-3.9-.74,1.67-.15,4.03-.98,3.9.74Z" fill="#161616" stroke-width="0"/><path d="M755.9,71.72l-1.07-.61c.47.16.94.32,1.07.61Z" fill="#010101" stroke-width="0"/><path d="M298.59,71.52l7.44-.57c2.58,3.92,14.98,2.02,19.32,4.88-.28,1.47.94,3.23-5.05,3.62,2.36-2.27-2.08-2.89-4.89-3.27-3.43-.46-4.89,1.22-6.06,2.46l-7.57.88c-1.83-.36-3.44-.69-4.85-1.01-.74-.17-1.42-.33-2.04-.48-.2-.04-.32-.08-.71-.14l-.23-.03-.17-.02-.41-.08c-.39-.09-.79-.24-1.13-.44-.19-.15.13.16-.72-.53-.67-.44-1.67-2.4-1.11-3.99.38-1.4,1.48-2.07,1.28-1.95l.19-.14c.26-.18.54-.34.83-.46l.21-.08h.04s.07-.03.07-.03l.28-.06c.07-.01.09,0,.14-.02.08,0,.18-.02.19,0,.27.04.53.09.78.13,1.97.34,3.07.74,3.35,1.26.28.52-.25,1.18-1.54,2.04-.32.22-.69.45-1.11.69-.2.12-.45.25-.64.37-.01,0,0,.01,0,.02h0s0,.02-.02-.07c-.03-.12-.12-.29-.11-.34-.01-.16-.18-.27-.12-.31.09-.13.03-.22.09-.54l.02-.2s0,0,0,0h0s.03-.02.03-.02l.07-.03c.12-.05.24-.09.37-.14,1.07-.4,2.34-.87,3.78-1.4Z" fill="#161616" stroke-width="0"/><path d="M309.35,78.65c1.16-1.24,2.63-2.92,6.06-2.46,2.81.38,7.25,1,4.89,3.27-4.09.27-9.08,1.63-10.95-.81Z" fill="#202020" stroke-width="0"/><path d="M315.61,65.3c-3.14,3.17-5.5,3.41-7.68,2.89-2.18-.52-4.19-1.7-6.57-1.49,5.38-3.09,9.87-2.34,14.25-1.41Z" fill="#161616" stroke-width="0"/><path d="M330.52,60.96l-2.71.4c.75-1.11,1.65-1.28,2.71-.4Z" fill="#161616" stroke-width="0"/><path d="M598.32,56.28c5.2,0,5.45,1.56,5.85,3.07-.8,2.14,1.92,1.68,4.81,1.1,1.61,2.19.44,4.86,7.9,5.62,1.5,2.74-6.66,1.62-7.84,3.3-10.49-3.43-11.32-8.16-10.72-13.09Z" fill="#161616" stroke-width="0"/><path d="M682.59,60.85l3.31.43c-1.89.93-2.34-.07-3.31-.43Z" fill="#010101" stroke-width="0"/><path d="M730.58,27.52c1.15,1.1,1.37,2.18,1.59,3.26-5.28-.61-10.53-1.22-15.78-1.83-4.73-.62-4.69-2.06-4.74-3.49,2.85.09,6.26.93,8.1-.34l10.84,2.4Z" fill="#010101" stroke-width="0"/><path d="M716.39,28.95l15.75,1.83c-.02.74-.03,1.49-.05,2.24l-18.28-1.13c.86-.98,1.72-1.96,2.58-2.94Z" fill="#161616" stroke-width="0"/><path d="M730.58,27.52l-10.84-2.38c.08-.82.17-1.64.25-2.46,3.59.45,7.18.91,10.78,1.37-.06,1.17-.13,2.32-.19,3.48Z" fill="#161616" stroke-width="0"/><path d="M656.84,16.84c.19-1.06.56-2.28,3.5-2.2,1.33.04,2.98,1.2,4.48,1.85-1.99,1.11-5.07.61-7.98.35Z" fill="#161616" stroke-width="0"/><path d="M719.74,25.12c-1.84,1.27-5.25.43-8.1.34,1.78-1.34,4.99-.77,8.1-.34Z" fill="#161616" stroke-width="0"/><path d="M687.74,27.26c.05-.62-2.37-1.44.03-1.85.25-.04.99.1,1.2.23,1.45.91.51,1.34-1.23,1.61Z" fill="#010101" stroke-width="0"/><path d="M493.06,60.19c4.45.76,8.33-6.71,13.19-.38.81,4.59-8.85,2.35-13.26,3.54.05-1.04.06-2.1.07-3.16Z" fill="#161616" stroke-width="0"/><path d="M548.32,62.7l-1.08-.22c.34.08.67.17,1.08.22Z" fill="#010101" stroke-width="0"/><path d="M492.98,63.35l-.57.47c.2-.15.4-.3.57-.47Z" fill="#161616" stroke-width="0"/><path d="M609.49,15.44c-1.78-.12-3.57-.23-5.36-.31-.06-.68-.12-1.35-.17-2.04,3.77-.04,5.54.83,5.53,2.34Z" fill="#202020" stroke-width="0"/><path d="M702.48,34.46c13.56-2.02,15.08,1.4,15.01,5.54-.99,1.49-1.98,2.98-2.97,4.47-10.04,2.88-15.67-1.63-23.46-2.56-.94-3.72-.26-7.02,11.42-7.45Z" fill="#202020" stroke-width="0"/><path d="M785.64,33.95l-1.15-.02c.1-.49.55-.44,1.15.02Z" fill="#010101" stroke-width="0"/><path d="M990.31,73.61l1.9-.21c-.3.25-.6.49-.89.73-.34-.17-.68-.34-1.01-.52Z" fill="#161616" stroke-width="0"/><path d="M804.32,45.03c.39-1.05.51-2.09.32-3.08.02-.02.3-.47.42-.76.18,1.21.04,2.58-.74,3.83Z" fill="#161616" stroke-width="0"/><path d="M654.24,44.31l-5.02,1.16c.33-1.38.54-2.84,5.02-1.16Z" fill="#202020" stroke-width="0"/><path d="M732.17,30.77c-.22-1.07-.45-2.14-.68-3.23,2.59.3,5.47.61,5.75,2.02.28,1.44-2.26,1.48-5.07,1.21Z" fill="#161616" stroke-width="0"/><path d="M582.19,58.58c.3,1.14.38,2.25-2.19,3.03.28-1.06-.9-2.31,2.19-3.03Z" fill="#010101" stroke-width="0"/><path d="M569.36,64.82l.55-.43c-.19.14-.39.28-.55.43Z" fill="#202020" stroke-width="0"/><path d="M590.2,62.89c-.55.8-.52,1.92-1.81,2.31-1.69.52-3.3-.43-2.76-1.04,1.08-1.21-4.3-3.66,3.8-3.57.26.78.51,1.53.76,2.29Z" fill="#010101" stroke-width="0"/><path d="M590.2,62.89c-.25-.76-.5-1.51-.76-2.29,4.02.56,3.69,1.36.76,2.29Z" fill="#161616" stroke-width="0"/><path d="M426.44,68.04c-.36.24-.68.49-1.12.71-.05.03-.94-.11-.99-.22-.12-.27.01-.56.04-.85l2.07.36Z" fill="#161616" stroke-width="0"/><path d="M506.79,46.53l1.07.2c-.4-.04-.8-.09-1.07-.2Z" fill="#161616" stroke-width="0"/><path d="M1118.38,95.48l3.99,1.26-1.09.52c-1.03-.57-2.06-1.15-2.9-1.78Z" fill="#202020" stroke-width="0"/><polygon points="451.92 71.15 449.44 71.62 450.15 70.43 451.92 71.15" fill="#161616" stroke-width="0"/><path d="M450.15,70.43l3.34-.85c-.22.63-.89,1.1-1.57,1.57l-1.77-.72Z" fill="#161616" stroke-width="0"/><path d="M608.98,60.45c-2.89.58-5.61,1.04-4.81-1.1,1.61.37,3.21.73,4.81,1.1Z" fill="#202020" stroke-width="0"/></svg>