<svg width="30" height="30" viewBox="0 0 30 30" fill="none" xmlns="http://www.w3.org/2000/svg">
<g clip-path="url(#clip0_90_15203)">
<path d="M29.5835 15.0001C29.5835 11.1323 28.047 7.42302 25.3121 4.68811C22.5772 1.95321 18.8679 0.416754 15.0001 0.416754C11.3279 0.413363 7.78965 1.79549 5.09202 4.28704C2.39439 6.7786 0.736031 10.1962 0.44821 13.8571C0.160389 17.518 1.26429 21.1527 3.53941 24.0352C5.81453 26.9177 9.09337 28.8358 12.721 29.4063V19.2147H9.02098V15.0001H12.7231V11.7876C12.7231 8.13342 14.9001 6.11259 18.2314 6.11259C19.8272 6.11259 21.496 6.398 21.496 6.398V9.98759H19.6564C17.8439 9.98759 17.2814 11.1126 17.2814 12.2647V15.0001H21.3251L20.6793 19.2147H17.2793V29.4063C20.7095 28.8631 23.8334 27.1138 26.0889 24.4729C28.3444 21.8321 29.5836 18.473 29.5835 15.0001Z" fill="#1877F2"/>
<path d="M20.6772 19.2145L21.3231 14.9999H17.2793V12.2645C17.2793 11.1124 17.8418 9.98743 19.6543 9.98743H21.4939V6.39577C21.4939 6.39577 19.8252 6.11035 18.2293 6.11035C14.896 6.11035 12.721 8.13118 12.721 11.7854V14.9999H9.021V19.2145H12.7231V29.4062C14.2332 29.6438 15.7713 29.6438 17.2814 29.4062V19.2145H20.6772Z" fill="white"/>
</g>
<defs>
<clipPath id="clip0_90_15203">
<rect width="30" height="30" fill="white"/>
</clipPath>
</defs>
</svg>
