<svg width="129" height="153" viewBox="0 0 129 153" fill="none" xmlns="http://www.w3.org/2000/svg">
<path d="M-21.5 109.479L-18.2743 91.8013H9.95063C10.6418 88.128 11.2179 84.4547 11.9091 80.8962L15.7108 59.3157C16.2868 55.7572 16.9781 52.0839 17.5541 48.4106H-10.5556L-7.44514 30.8477H20.319L26.8856 -6H47.0462L40.8252 30.8477H76.4232L83.105 -6H103.381L96.9295 30.8477H125.5L122.389 48.4106H93.9342L86.2155 91.8013H114.556L111.215 109.479H83.2202L75.6168 150H55.1105L62.7139 109.479H27.0008L19.2821 150H-1.22414L6.49451 109.479H-21.5ZM37.7147 48.4106L29.9961 91.8013H66.2853L74.0039 48.4106H37.7147Z" fill="#DBE9FD"/>
<path fill-rule="evenodd" clip-rule="evenodd" d="M-23.8038 111.401C-24.3738 110.717 -24.611 109.816 -24.4512 108.94L-21.2255 91.2628C-20.9654 89.8372 -19.7234 88.8013 -18.2743 88.8013H7.44743C7.59289 87.9813 7.73876 87.1437 7.88521 86.3028C8.23904 84.2712 8.59624 82.2202 8.95913 80.3501L12.7527 58.8157C13.0306 57.0998 13.3146 55.4706 13.5973 53.8486C13.7387 53.0374 13.8797 52.2281 14.0196 51.4106H-10.5556C-11.4428 51.4106 -12.2845 51.0179 -12.8545 50.3381C-13.4245 49.6583 -13.6644 48.761 -13.5096 47.8874L-10.3991 30.3245C-10.1454 28.8918 -8.90014 27.8477 -7.44512 27.8477H17.8064L23.9321 -6.52634C24.1872 -7.9576 25.4318 -9 26.8856 -9H47.0463C47.9292 -9 48.7673 -8.61103 49.3374 -7.93672C49.9074 -7.2624 50.1514 -6.37122 50.0044 -5.50058L44.3742 27.8477H73.9183L80.1532 -6.53528C80.412 -7.96239 81.6546 -9 83.105 -9H103.381C104.267 -9 105.108 -8.60823 105.678 -7.92975C106.248 -7.25127 106.489 -6.35549 106.336 -5.48262L100.5 27.8477H125.5C126.387 27.8477 127.229 28.2404 127.799 28.9202C128.369 29.6 128.609 30.4973 128.454 31.3709L125.344 48.9338C125.09 50.3665 123.845 51.4106 122.39 51.4106H96.4476L89.7963 88.8013H114.556C115.449 88.8013 116.296 89.1993 116.866 89.8871C117.436 90.5748 117.669 91.4808 117.503 92.3584L114.163 110.036C113.895 111.453 112.657 112.479 111.215 112.479H85.7097L78.5653 150.553C78.2991 151.972 77.0603 153 75.6168 153H55.1105C54.218 153 53.3718 152.603 52.8019 151.916C52.2319 151.229 51.9974 150.324 52.162 149.447L59.0987 112.479H29.4833L22.2292 150.561C21.9596 151.976 20.7225 153 19.2822 153H-1.22411C-2.11808 153 -2.96547 152.601 -3.5354 151.913C-4.10533 151.224 -4.3384 150.317 -4.17112 149.439L2.86914 112.479H-21.5C-22.3899 112.479 -23.2339 112.084 -23.8038 111.401ZM6.49454 109.479L-1.22411 150H19.2822L27.0008 109.479H62.714L55.1105 150H75.6168L83.2202 109.479H111.215L114.556 91.8013H86.2155L93.9342 48.4106H122.39L125.5 30.8477H96.9295L103.381 -6H83.105L76.4232 30.8477H40.8253L47.0463 -6H26.8856L20.319 30.8477H-7.44512L-10.5556 48.4106H17.5541C17.3972 49.4114 17.2317 50.4121 17.0623 51.4106C16.8913 52.4184 16.7164 53.4239 16.5423 54.4246C16.2558 56.0714 15.9715 57.7053 15.7108 59.3157L11.9091 80.8962C11.536 82.8172 11.1964 84.7717 10.8542 86.7415C10.5624 88.4206 10.2687 90.111 9.95065 91.8013H-18.2743L-21.5 109.479H6.49454ZM29.9961 91.8013H66.2853L74.0039 48.4106H37.7148L29.9961 91.8013ZM40.2282 51.4106L33.5769 88.8013H63.7719L70.4232 51.4106H40.2282Z" fill="#DBE9FD"/>
</svg>
