<?xml version="1.0" encoding="UTF-8"?><svg id="Lag_6" xmlns="http://www.w3.org/2000/svg" width="166" height="33" xmlns:xlink="http://www.w3.org/1999/xlink" viewBox="0 0 166 33"><defs><clipPath id="clippath"><rect x=".26" y=".63" width="164.85" height="32" fill="none" stroke-width="0"/></clipPath><mask id="mask" x="0" y="-29.7" width="175.87" height="92.52" maskUnits="userSpaceOnUse"><g id="mask0_76_10102"><path d="M128.48,62.82c26.17,0,47.39-20.71,47.39-46.26s-21.22-46.26-47.39-46.26-47.39,20.71-47.39,46.26,21.22,46.26,47.39,46.26Z" fill="#fff" stroke-width="0"/></g></mask></defs><g clip-path="url(#clippath)"><rect x=".26" y=".63" width="164.85" height="32" fill="#fff" stroke-width="0"/><g mask="url(#mask)"><path d="M159.75,1.06H4.89C2.19,1.06,0,3.2,0,5.83v21.46C0,29.93,2.19,32.06,4.89,32.06h154.86c2.7,0,4.88-2.14,4.88-4.77V5.83c0-2.63-2.19-4.77-4.88-4.77Z" fill="#0a113b" stroke-width="0"/></g><path d="M83.54,1.16c-1.81,5.06-2.8,10.51-2.8,16.19,0,5.14.81,10.1,2.3,14.74" fill="none" stroke="#0a113b" stroke-miterlimit="10" stroke-width="2"/><path d="M5.15,1.16h155.07c2.4,0,4.36,1.96,4.36,4.39v22.15c0,2.43-1.95,4.39-4.36,4.39H5.15c-2.4,0-4.36-1.96-4.36-4.39V5.55C.79,3.12,2.75,1.16,5.15,1.16Z" fill="none" stroke="#0a113b"/><path d="M9.72,24.34V8.27h7.95c3.01,0,5.46,2.23,5.46,5.37s-2.45,5.44-5.46,5.44h-4.09v5.25h-3.86ZM13.57,15.77h3.26c1.46,0,2.33-1.05,2.33-2.13,0-1.14-.86-2.06-2.33-2.06h-3.26v4.19Z" fill="#0a113b" stroke-width="0"/><path d="M28.67,8.27h4.59l6.31,16.07h-4.14l-1.08-2.95h-6.76l-1.08,2.95h-4.14l6.3-16.07h0ZM28.7,18.36h4.55l-2.27-6.2-2.28,6.2h0Z" fill="#0a113b" stroke-width="0"/><path d="M41.45,24.34V8.27h8.07c3.01,0,5.46,2.14,5.46,5.22,0,2.3-1.28,4.06-3.14,4.85l3.34,6.01h-4.17l-3.02-5.55h-2.67v5.54h-3.86,0ZM45.3,15.49h3.37c1.46,0,2.33-.86,2.33-2,0-1.07-.86-1.9-2.33-1.9h-3.37v3.91h0Z" fill="#0a113b" stroke-width="0"/><path d="M57.59,24.34V8.27h3.87v6.77l6.22-6.77h4.88l-6.22,6.68,6.49,9.4h-4.7l-4.62-6.92-2.05,2.12v4.81h-3.87Z" fill="#0a113b" stroke-width="0"/><path d="M90.51,21.75l7.5-10.14h-7.39v-3.33h12.48v2.63l-7.48,10.13h7.6v3.31h-12.71v-2.6Z" fill="#fff" stroke-width="0"/><path d="M104.45,16.31c0-4.64,3.72-8.26,8.34-8.26s8.35,3.63,8.35,8.26-3.61,8.29-8.35,8.29-8.34-3.52-8.34-8.29ZM108.42,16.31c0,2.57,1.78,4.52,4.36,4.52s4.39-1.81,4.39-4.52-1.88-4.49-4.39-4.49-4.36,1.88-4.36,4.49Z" fill="#fff" stroke-width="0"/><path d="M123.92,24.36V8.29h3.29l8.04,9.8v-9.8h3.87v16.07h-3.35l-7.98-9.7v9.7h-3.87Z" fill="#fff" stroke-width="0"/><path d="M142.95,8.29h11.32v3.28h-7.45v2.98h6.53v3.27h-6.53v3.28h7.57v3.27h-11.44V8.29Z" fill="#fff" stroke-width="0"/></g></svg>