<svg width="438" height="682" viewBox="0 0 438 682" fill="none" xmlns="http://www.w3.org/2000/svg">
<g clip-path="url(#clip0_618_5261)">
<path d="M318.429 555.667L322.21 563.163L329.582 559.445L325.987 552.012L318.429 555.667ZM201.754 486.007C197.614 488.095 195.95 493.144 198.038 497.283C200.126 501.423 205.175 503.087 209.314 500.999L201.754 486.007ZM226.698 460.892L296.66 425.609L289.1 410.618L219.137 445.9L226.698 460.892ZM314.301 460.591L244.339 495.873L251.899 510.865L321.862 475.583L314.301 460.591ZM244.339 495.873C239.53 498.298 236.421 499.857 233.96 500.83C231.607 501.761 230.617 501.829 230.09 501.799L229.141 518.563C233.106 518.787 236.696 517.804 240.137 516.443C243.469 515.125 247.366 513.151 251.899 510.865L244.339 495.873ZM203.036 494.763C205.321 499.296 207.281 503.2 209.177 506.241C211.135 509.381 213.438 512.306 216.759 514.483L225.962 500.439C225.52 500.149 224.764 499.506 223.426 497.359C222.026 495.113 220.452 492.011 218.028 487.203L203.036 494.763ZM230.09 501.799C228.618 501.716 227.195 501.247 225.962 500.439L216.759 514.483C220.457 516.906 224.727 518.313 229.141 518.563L230.09 501.799ZM322.971 434.28C325.396 439.088 326.955 442.197 327.928 444.658C328.859 447.011 328.927 448.001 328.897 448.529L345.662 449.477C345.885 445.513 344.903 441.922 343.542 438.482C342.223 435.149 340.249 431.252 337.963 426.719L322.971 434.28ZM321.862 475.583C326.394 473.297 330.299 471.337 333.34 469.441C336.479 467.484 339.405 465.18 341.581 461.859L327.537 452.656C327.248 453.098 326.605 453.854 324.458 455.192C322.211 456.593 319.11 458.166 314.301 460.591L321.862 475.583ZM328.897 448.529C328.814 450 328.345 451.424 327.537 452.656L341.581 461.859C344.004 458.162 345.412 453.891 345.662 449.477L328.897 448.529ZM296.66 425.609C301.469 423.185 304.578 421.626 307.039 420.652C309.391 419.721 310.382 419.654 310.909 419.683L311.858 402.92C307.893 402.695 304.302 403.678 300.863 405.039C297.53 406.357 293.632 408.332 289.1 410.618L296.66 425.609ZM337.963 426.719C335.677 422.186 333.717 418.282 331.821 415.241C329.864 412.101 327.561 409.176 324.24 407L315.036 421.044C315.478 421.333 316.234 421.977 317.573 424.124C318.973 426.369 320.546 429.471 322.971 434.28L337.963 426.719ZM310.909 419.683C312.38 419.767 313.804 420.236 315.036 421.044L324.24 407C320.542 404.577 316.271 403.17 311.858 402.92L310.909 419.683ZM219.137 445.9C214.604 448.185 210.7 450.145 207.659 452.041C204.519 453.999 201.594 456.302 199.418 459.623L213.461 468.826C213.751 468.385 214.394 467.628 216.542 466.29C218.787 464.89 221.889 463.317 226.698 460.892L219.137 445.9ZM218.028 487.203C215.603 482.394 214.044 479.285 213.07 476.825C212.139 474.471 212.072 473.481 212.101 472.954L195.338 472.005C195.113 475.97 196.096 479.56 197.457 483.001C198.775 486.334 200.75 490.231 203.036 494.763L218.028 487.203ZM199.418 459.623C196.995 463.321 195.587 467.591 195.338 472.005L212.101 472.954C212.185 471.482 212.654 470.059 213.461 468.826L199.418 459.623ZM336.131 621.959L315.97 581.98L300.978 589.54L321.139 629.519L336.131 621.959ZM340.956 569.379L361.117 609.358L376.109 601.797L355.948 561.819L340.956 569.379ZM361.117 609.358C363.6 614.281 365.066 617.228 365.845 619.476C366.202 620.507 366.293 621.068 366.313 621.33C366.318 621.391 366.318 621.433 366.318 621.457C366.317 621.481 366.318 621.487 366.317 621.489C366.319 621.484 366.319 621.481 366.317 621.489L382.263 626.743C383.795 622.097 383.025 617.775 381.711 613.981C380.477 610.418 378.379 606.297 376.109 601.797L361.117 609.358ZM362.485 643.144C366.985 640.874 371.121 638.808 374.232 636.676C377.544 634.407 380.733 631.39 382.263 626.743L366.317 621.489C366.314 621.495 366.315 621.494 366.317 621.489C366.317 621.49 366.313 621.495 366.299 621.514C366.285 621.534 366.26 621.567 366.22 621.613C366.048 621.812 365.641 622.209 364.741 622.826C362.778 624.171 359.848 625.669 354.925 628.152L362.485 643.144ZM322.163 563.186C327.086 560.703 330.032 559.238 332.281 558.458C333.312 558.102 333.873 558.01 334.135 557.991C334.196 557.985 334.238 557.986 334.262 557.986C334.286 557.987 334.292 557.986 334.293 557.987C334.286 557.985 334.288 557.986 334.293 557.987L339.548 542.04C334.901 540.509 330.58 541.279 326.786 542.593C323.222 543.827 319.102 545.925 314.602 548.194L322.163 563.186ZM355.948 561.819C353.679 557.319 351.613 553.182 349.481 550.071C347.212 546.759 344.195 543.571 339.548 542.04L334.293 557.987C334.298 557.988 334.3 557.989 334.293 557.987C334.295 557.987 334.299 557.991 334.319 558.005C334.338 558.019 334.372 558.043 334.418 558.084C334.617 558.256 335.014 558.662 335.631 559.562C336.976 561.526 338.473 564.456 340.956 569.379L355.948 561.819ZM315.97 581.98C313.487 577.057 312.021 574.11 311.242 571.862C310.885 570.831 310.794 570.27 310.774 570.008C310.769 569.946 310.769 569.905 310.769 569.881C310.77 569.857 310.77 569.845 310.771 569.844C310.769 569.851 310.769 569.848 310.771 569.844L294.823 564.595C293.292 569.241 294.062 573.563 295.376 577.357C296.61 580.92 298.708 585.041 300.978 589.54L315.97 581.98ZM314.602 548.194C310.102 550.464 305.966 552.53 302.855 554.661C299.543 556.931 296.354 559.948 294.823 564.595L310.771 569.844C310.772 569.839 310.774 569.837 310.771 569.844C310.771 569.842 310.774 569.843 310.788 569.824C310.802 569.804 310.827 569.771 310.867 569.725C311.039 569.526 311.446 569.129 312.346 568.512C314.309 567.167 317.239 565.669 322.163 563.186L314.602 548.194ZM321.139 629.519C323.408 634.019 325.474 638.155 327.606 641.266C329.875 644.579 332.893 647.767 337.539 649.298L342.794 633.351C342.787 633.348 342.789 633.35 342.794 633.351C342.792 633.351 342.788 633.347 342.768 633.333C342.749 633.319 342.715 633.295 342.669 633.254C342.47 633.082 342.073 632.676 341.456 631.776C340.112 629.812 338.614 626.882 336.131 621.959L321.139 629.519ZM354.925 628.152C350.001 630.634 347.055 632.1 344.806 632.879C343.775 633.236 343.214 633.327 342.952 633.347C342.891 633.353 342.849 633.352 342.825 633.352C342.801 633.351 342.795 633.352 342.794 633.351C342.798 633.353 342.801 633.353 342.794 633.351L337.539 649.298C342.186 650.829 346.507 650.059 350.301 648.745C353.865 647.511 357.985 645.413 362.485 643.144L354.925 628.152ZM342.105 515.278L379.767 488.619L370.066 474.915L332.404 501.574L342.105 515.278ZM337.13 417.737L326.687 423.003L334.248 437.995L344.691 432.729L337.13 417.737ZM392.836 436.093C390.644 431.745 388.822 428.123 387.133 425.256C385.409 422.327 383.539 419.678 381.034 417.442L369.854 429.969C370.518 430.562 371.355 431.55 372.665 433.775C374.011 436.062 375.553 439.109 377.845 443.654L392.836 436.093ZM344.691 432.729C349.236 430.437 352.287 428.903 354.728 427.865C357.105 426.855 358.365 426.557 359.251 426.475L357.709 409.756C354.365 410.064 351.287 411.083 348.159 412.413C345.097 413.714 341.479 415.544 337.13 417.737L344.691 432.729ZM381.034 417.442C374.662 411.755 366.214 408.971 357.709 409.756L359.251 426.475C363.117 426.119 366.958 427.384 369.854 429.969L381.034 417.442ZM379.767 488.619C386.313 483.985 391.383 480.542 394.634 475.943L380.923 466.251C379.744 467.919 377.717 469.499 370.066 474.915L379.767 488.619ZM377.845 443.654C382.065 452.022 383.115 454.369 383.375 456.395L400.029 454.259C399.313 448.672 396.448 443.254 392.836 436.093L377.845 443.654ZM394.634 475.943C399.085 469.646 401.011 461.907 400.029 454.259L383.375 456.395C383.822 459.871 382.947 463.389 380.923 466.251L394.634 475.943ZM332.404 501.574C325.075 506.761 318.929 511.093 314.446 515.197C309.787 519.461 306.134 524.161 304.58 530.404L320.874 534.459C321.328 532.637 322.431 530.649 325.782 527.583C329.306 524.356 334.42 520.718 342.105 515.278L332.404 501.574ZM325.987 552.012C320.794 541.272 320.122 537.481 320.874 534.459L304.58 530.404C302.175 540.073 305.956 549.154 310.871 559.321L325.987 552.012ZM322.163 563.186L322.21 563.163L314.649 548.171L314.602 548.194L322.163 563.186ZM206.751 483.487L201.754 486.007L209.314 500.999L214.312 498.479L206.751 483.487Z" fill="#DBE9FD"/>
</g>
<path d="M42.4123 132.579L141.051 82.8396C138.05 76.7394 130.52 61.4819 124.405 49.2529C116.762 33.9667 104.533 9.50856 92.3037 12.5658C69.0912 18.3687 86.1892 46.1957 80.0747 49.2529C73.9601 52.3102 66.317 32.438 52.5593 43.1383C40.6753 52.3813 67.8456 88.9972 61.7311 93.5831C55.6165 98.169 51.0306 76.7683 34.2157 85.9401C20.7637 93.2775 34.0751 120.09 42.4123 132.579Z" fill="#DBE9FD"/>
<path d="M25.0439 72.1825C17.4007 70.6539 3.04802 63.3803 9.75757 47.7244C14.3435 37.0237 26.5725 46.1955 31.1584 52.3101C33.9099 55.9788 43.3875 75.2399 25.0439 72.1825Z" fill="#DBE9FD"/>
<path d="M141.051 82.8396L42.4123 132.579L197.087 439.316C198.331 441.781 201.337 442.772 203.803 441.529L293.513 396.292C295.979 395.048 296.97 392.042 295.726 389.576L141.051 82.8396Z" fill="#DBE9FD"/>
<defs>
<clipPath id="clip0_618_5261">
<rect width="205.963" height="241.783" fill="white" transform="translate(177.907 466.065) rotate(-26.7618)"/>
</clipPath>
</defs>
</svg>
